<?xml version="1.0" encoding="utf-8"?>
<!-- Generator: Adobe Illustrator 19.0.0, SVG Export Plug-In . SVG Version: 6.00 Build 0)  -->
<svg version="1.1" id="Layer_1" xmlns="http://www.w3.org/2000/svg" xmlns:xlink="http://www.w3.org/1999/xlink" x="0px" y="0px"
	 viewBox="0 0 500 500" style="enable-background:new 0 0 500 500;" xml:space="preserve">
<style type="text/css">
	.st0{fill:#161413;}
</style>
<g id="XMLID_1_">
	<g id="g2414" transform="matrix(0.6960123,0,0,0.6960123,56.08938,15.250729)">
		<g id="g2438" transform="translate(-33.78554,60.934635)">
			<g id="g4" transform="translate(8.76367,50.1689)">
				<path id="path6" class="st0" d="M124.7,366c-0.1,0.1-0.2,0.4-0.2,0.5c-6.5,12.3-19.3,20.6-33.8,20.6
					c-21.1,0-38.4-17.7-38.4-39.5c0-21.7,17.3-39.5,38.4-39.5c14.6,0,27.4,8.5,33.9,21c0.2,0.2,0.2,0.4,0.4,0.7
					c0.1,0.1-12.3,9-12.4,8.8c-0.1-0.2-0.1-0.4-0.2-0.5c-3.6-8.8-12-14.7-21.7-14.6C77.7,323.6,67,334.3,67,347.6
					c0,13.4,10.6,24.2,23.6,24.2c9.4,0,17.6-5.8,21.3-14c0.2-0.3,0.2-0.5,0.4-0.8L124.7,366z"/>
			</g>
			<g id="g8" transform="translate(39.6699,50.4219)">
				<path id="path10" class="st0" d="M109.7,308.6h14.8v27.6h38.9v-27.6h14.9v76.8h-14.9v-33.7h-38.9v33.7h-14.8V308.6z"/>
			</g>
			<g id="g12" transform="translate(136.638,50.4219)">
				<path id="path14" class="st0" d="M290.2,385.4v-76.8h53.7v15.5h-38.7v15.3H341v15.3h-35.8v15.3h44.2v15.3H290.2z"/>
			</g>
			<g id="g16" transform="translate(164.664,50.4219)">
				<path id="path18" class="st0" d="M342.4,385.4v-76.8h15v61.5h41.8v15.3H342.4z"/>
			</g>
			<g id="g20" transform="translate(103.166,50.4219)">
				<path id="path22" class="st0" d="M242.9,385.4h-0.5h-14.6v-76.8h1.1h19.8l32.9,46.2v-46.2h14.9v76.8h-11.9l-41.7-57.9V385.4z"/>
			</g>
			<g id="g24" transform="translate(67.8223,50.4219)">
				<path id="path26" class="st0" d="M206.6,324.1l-13.1,30.7h26.8L206.6,324.1z M186.8,370.1l-6.9,15.3h-17.8l34.1-76.8H217
					l34.3,76.8h-17.8l-6.9-15.3H186.8z"/>
			</g>
		</g>
	</g>
	<path id="XMLID_2_" class="st0" d="M340.9,245.6c-0.1,0.1-0.2,0.2-0.3,0.4c-9.6,15.5-26.8,25.9-46.2,25.9c-6.3,0-12.3-1.1-17.7-2.9
		c12-13.8,19.3-31.8,19.3-51.5c0-19.6-7.2-37.7-19.1-51.5c5.4-1.9,11.3-2.9,17.5-2.9c19.3,0,37.1,10.3,46.9,27
		c0.1,0.1,0.1,0.2,0.1,0.3l22.6-11.7c-0.1-0.2-0.2-0.4-0.3-0.6c-13.8-24.1-39.7-40.3-69.3-40.3c-14.3,0-27.7,3.9-39,10.5
		c-11.2-6.6-24.7-10.5-39-10.5c-29.5,0-55.5,16.2-69.3,40.3c-0.1,0.1-0.2,0.3-0.3,0.6l22.6,11.7c0-0.1,0-0.2,0.1-0.3
		c9.8-16.6,27.6-27,46.9-27c6.2,0,12.1,1,17.5,2.9c-11.9,13.9-19.1,31.9-19.1,51.5c0,19.7,7.3,37.8,19.3,51.5
		c-5.4,1.8-11.5,2.9-17.7,2.9c-19.5,0-36.7-10.4-46.2-25.9c-0.1-0.2-0.2-0.3-0.3-0.4l-11.2,5.7l-11.2,5.8c0,0.1,0.1,0.1,0.1,0.2
		c0,0.1,0.1,0.1,0.1,0.2c13.9,23.7,39.5,39.6,68.8,39.6c14.3,0,27.7-3.9,39-10.4c11.2,6.5,24.7,10.4,39,10.4
		c29.3,0,54.9-16,68.8-39.6c0-0.1,0.1-0.1,0.1-0.2c0-0.1,0.1-0.1,0.1-0.2l-11.2-5.8L340.9,245.6z M255.4,255.3
		c-9.3-9.8-15.2-23.1-15.2-37.8c0-14.4,5.6-27.5,15.2-37.3c9.6,9.8,15.2,22.9,15.2,37.3C270.6,232.2,264.6,245.5,255.4,255.3z"/>
</g>
</svg>
