<svg width="78" height="78" viewBox="0 0 78 78" fill="none" xmlns="http://www.w3.org/2000/svg">
<path d="M73.4297 44.5225V7.00781C73.4297 5.74562 72.4067 4.72266 71.1445 4.72266H59.5664V2.28516C59.5664 1.02296 58.5434 0 57.2812 0C56.0191 0 54.9961 1.02296 54.9961 2.28516V4.72266H45.8555V2.28516C45.8555 1.02296 44.8325 0 43.5703 0C42.3081 0 41.2852 1.02296 41.2852 2.28516V4.72266H32.1445V2.28516C32.1445 1.02296 31.1216 0 29.8594 0C28.5972 0 27.5742 1.02296 27.5742 2.28516V4.72266H18.4336V2.28516C18.4336 1.02296 17.4106 0 16.1484 0C14.8862 0 13.8633 1.02296 13.8633 2.28516V4.72266H2.28516C1.02296 4.72266 0 5.74562 0 7.00781V66.5742C0 67.8364 1.02296 68.8594 2.28516 68.8594H40.3413C44.0357 74.367 50.3181 78 57.4336 78C68.7737 78 78 68.7737 78 57.4336C78 52.5479 76.2861 48.0549 73.4297 44.5225ZM13.8633 9.29297V11.5781C13.8633 12.8403 14.8862 13.8633 16.1484 13.8633C17.4106 13.8633 18.4336 12.8403 18.4336 11.5781V9.29297H27.5742V11.5781C27.5742 12.8403 28.5972 13.8633 29.8594 13.8633C31.1216 13.8633 32.1445 12.8403 32.1445 11.5781V9.29297H41.2852V11.5781C41.2852 12.8403 42.3081 13.8633 43.5703 13.8633C44.8325 13.8633 45.8555 12.8403 45.8555 11.5781V9.29297H54.9961V11.5781C54.9961 12.8403 56.0191 13.8633 57.2812 13.8633C58.5434 13.8633 59.5664 12.8403 59.5664 11.5781V9.29297H68.8594V18.4336H4.57031V9.29297H13.8633ZM4.57031 64.2891V23.0039H68.8594V40.3413C65.5893 38.1484 61.6582 36.8672 57.4336 36.8672C50.2127 36.8672 43.85 40.6085 40.1795 46.2536C39.8706 46.0977 39.5225 46.0078 39.1523 46.0078H34.582C33.3198 46.0078 32.2969 47.0308 32.2969 48.293C32.2969 49.5552 33.3198 50.5781 34.582 50.5781H38.0437C37.5277 52.0337 37.1707 53.5643 36.9951 55.1484H34.582C33.3198 55.1484 32.2969 56.1714 32.2969 57.4336C32.2969 58.6958 33.3198 59.7188 34.582 59.7188H36.9951C37.1707 61.3029 37.5271 62.8335 38.0437 64.2891H4.57031ZM57.4336 73.4297C48.6131 73.4297 41.4375 66.2541 41.4375 57.4336C41.4375 48.6131 48.6131 41.4375 57.4336 41.4375C66.2541 41.4375 73.4297 48.6131 73.4297 57.4336C73.4297 66.2541 66.2541 73.4297 57.4336 73.4297Z" fill="white"/>
<path d="M66.5742 55.1484H59.7188V48.293C59.7188 47.0308 58.6958 46.0078 57.4336 46.0078C56.1714 46.0078 55.1484 47.0308 55.1484 48.293V57.4336C55.1484 58.6958 56.1714 59.7188 57.4336 59.7188H66.5742C67.8364 59.7188 68.8594 58.6958 68.8594 57.4336C68.8594 56.1714 67.8364 55.1484 66.5742 55.1484Z" fill="white"/>
<path d="M20.7188 27.7266H16.1484C14.8862 27.7266 13.8633 28.7495 13.8633 30.0117C13.8633 31.2739 14.8862 32.2969 16.1484 32.2969H20.7188C21.9809 32.2969 23.0039 31.2739 23.0039 30.0117C23.0039 28.7495 21.9809 27.7266 20.7188 27.7266Z" fill="white"/>
<path d="M20.7188 36.8672H16.1484C14.8862 36.8672 13.8633 37.8902 13.8633 39.1523C13.8633 40.4145 14.8862 41.4375 16.1484 41.4375H20.7188C21.9809 41.4375 23.0039 40.4145 23.0039 39.1523C23.0039 37.8902 21.9809 36.8672 20.7188 36.8672Z" fill="white"/>
<path d="M20.7188 46.0078H16.1484C14.8862 46.0078 13.8633 47.0308 13.8633 48.293C13.8633 49.5552 14.8862 50.5781 16.1484 50.5781H20.7188C21.9809 50.5781 23.0039 49.5552 23.0039 48.293C23.0039 47.0308 21.9809 46.0078 20.7188 46.0078Z" fill="white"/>
<path d="M34.582 32.2969H39.1523C40.4145 32.2969 41.4375 31.2739 41.4375 30.0117C41.4375 28.7495 40.4145 27.7266 39.1523 27.7266H34.582C33.3198 27.7266 32.2969 28.7495 32.2969 30.0117C32.2969 31.2739 33.3198 32.2969 34.582 32.2969Z" fill="white"/>
<path d="M34.582 41.4375H39.1523C40.4145 41.4375 41.4375 40.4145 41.4375 39.1523C41.4375 37.8902 40.4145 36.8672 39.1523 36.8672H34.582C33.3198 36.8672 32.2969 37.8902 32.2969 39.1523C32.2969 40.4145 33.3198 41.4375 34.582 41.4375Z" fill="white"/>
<path d="M20.7188 55.1484H16.1484C14.8862 55.1484 13.8633 56.1714 13.8633 57.4336C13.8633 58.6958 14.8862 59.7188 16.1484 59.7188H20.7188C21.9809 59.7188 23.0039 58.6958 23.0039 57.4336C23.0039 56.1714 21.9809 55.1484 20.7188 55.1484Z" fill="white"/>
<path d="M52.8633 32.2969H57.4336C58.6958 32.2969 59.7188 31.2739 59.7188 30.0117C59.7188 28.7495 58.6958 27.7266 57.4336 27.7266H52.8633C51.6011 27.7266 50.5781 28.7495 50.5781 30.0117C50.5781 31.2739 51.6011 32.2969 52.8633 32.2969Z" fill="white"/>
</svg>
