<?xml version="1.0" encoding="utf-8"?>
<!-- Generator: Adobe Illustrator 19.0.0, SVG Export Plug-In . SVG Version: 6.00 Build 0)  -->
<svg version="1.1" id="Layer_1" xmlns="http://www.w3.org/2000/svg" xmlns:xlink="http://www.w3.org/1999/xlink" x="0px" y="0px"
	 viewBox="0 0 500 500" style="enable-background:new 0 0 500 500;" xml:space="preserve">
<style type="text/css">
	.st0{fill:#fff;}
</style>
<g id="g2493">
	<path id="path2495" class="st0" d="M373,265.9c-0.1-0.7-0.1-1.3,3.3-2.3c3.4-1,11.5-3.8,16.5-6.6c5-2.8,5.8-3.2,7-2.4
		c1.2,0.8,0.8,2.6,0.8,4v13.5c1.8-3,7.8-12.9,12.5-15.8c3.7-2.3,5-2.5,7.3-2.5c2.8-0.1,9.3,1.7,9.6,8.6c0.2,5.4-3.8,7.6-6.3,7.2
		c-2-0.3-3.5-2.2-4.7-4c-1.2-1.9-3.1-3-5.1-2.4c-1.9,0.7-12.7,7.7-13.4,17.7c-0.4,7.3,0,30.2,0,30.2c0,3.5,1.3,4.8,2.9,5.7
		c1.5,0.9,7.2,1,8.8,1.2c1.6,0.2,1.6,0.6,1.6,1.1c0,0.5,0,0.7-1.4,0.7h-38c-1.2,0-1.7-0.2-1.7-1c0-1,1.6-0.8,2.8-1
		c1.2-0.2,7.6,0.4,9.5-2.9c1.4-2.1,1.2-5.5,1.2-5.5l-0.2-40.2c0-3.2-1-3.7-1.9-4.2c-0.9-0.5-2.4-0.8-5.5,0.3
		C375.6,266.3,373.5,267.2,373,265.9"/>
	<path id="path2497" class="st0" d="M240,266c-0.5-1,0.4-1.6,3.3-2.4c3.1-0.8,10-2.9,15.5-6c5.5-3.1,6.4-3.4,7.6-3
		c1.2,0.4,1.1,2.4,1.1,4.1v52.1c0,2.9,0.4,4.1,1.7,5.4c1.3,1.2,4.6,1.9,8.9,1.9c1.9,0,2.5,0.2,2.5,1.1c0,0.8-0.6,0.8-1.4,0.8h-37.7
		c-1.2,0-1.4-0.5-1.4-1c0-0.6,0.5-1,2.3-1c1.5,0,8.3,0.5,9.9-3c0.6-1.4,0.9-3.2,0.9-5v-41.3c0-3.1-2.4-4.5-5.2-3.8
		C244.5,265.4,240.6,267.2,240,266"/>
	<path id="path2499" class="st0" d="M259.2,230c5.1,0,9.3-4.2,9.3-9.3c0-5.1-4.2-9.3-9.3-9.3c-5.1,0-9.3,4.1-9.3,9.3
		C249.9,225.8,254.1,230,259.2,230"/>
	<path id="path2501" class="st0" d="M304.6,289c1.9,16.9,11.9,30,24.4,27.8c12.5-2.2,18.7-14.1,17.2-33.2
		c-1.5-19.4-11.1-29.1-24.1-27.9C308.8,256.9,302.7,272.1,304.6,289 M316.9,252.7c16.1-3,39,0.5,44.2,25.7
		c5.2,25.2-12.1,38.6-27.2,41.8c-14.7,3.2-39.6,0.9-44.2-26.2C285.7,269.8,303.3,255.2,316.9,252.7"/>
	<path id="path2503" class="st0" d="M126.5,315.8h9.3c34.7,0,44-3.2,56.2-19.4c12.2-16.2,13.7-39.5,13.7-47.4
		c0-7.9-2.1-27.6-14.3-44.3c-12.2-16.7-32.6-21-50.5-21h-14.5c-3.4,0-3.6,1.5-3.6,3.9v125.2C122.8,315.4,123.8,315.8,126.5,315.8
		 M70,318.7c0-1.3,1.6-1.5,3.2-1.5c17.7-0.5,21-1.1,23-3.2c1.1-1.2,2.7-2.1,2.7-10.3V191c0-10.1-12.3-8.5-21-9.4
		c-3-0.3-3.3-0.7-3.3-1.6c0-0.9,0.6-1.3,2.2-1.4H148c78.3,0,82.3,57.2,82.3,72.5c0,32.8-21.7,68.8-67,68.8H72.3
		C71.2,320,70,319.8,70,318.7"/>
</g>
</svg>
