<?xml version="1.0" encoding="utf-8"?>
<!-- Generator: Adobe Illustrator 19.0.0, SVG Export Plug-In . SVG Version: 6.00 Build 0)  -->
<svg version="1.1" id="Layer_1" fill="#fff" xmlns="http://www.w3.org/2000/svg" xmlns:xlink="http://www.w3.org/1999/xlink" x="0px" y="0px"
	 viewBox="0 0 500 500" style="enable-background:new 0 0 500 500;" xml:space="preserve">
<g id="XMLID_1_">
	<path id="XMLID_3_" d="M265.8,103c-0.1-0.7-0.2-1.5-0.3-2.3c-0.7-10.8,7.4-20.1,18.1-20.9c10.8-0.8,20.1,7.4,20.9,18.1
		c0.8,10.8-7.4,20.1-18.1,20.9c-0.7,0.1-1.4,0.1-2,0c-0.4,0.1-0.7,0.2-1.1,0.5c-1.1,1.7,2.8,1.4,0.1,9c0,0,0,0.8-0.3,1.7
		c-0.2,2.9-1.3,11.5-1.5,16.1c0.6,0.7,0.7,1,0.7,2.6c-0.3,2.2-0.8,7.5-1.6,10.9c-0.7,2.9-1.9,3.5-2.8,4.2
		c-1.4,6.1-1.7,11.1-5.2,18.4c-0.3,5.6-0.7,7.1-1.9,9.8c-0.1,8.2,0.4,9.4-5.1,22.4c-1.4,6.1-0.1,10.3,1.4,16.6
		c1.5,6.5,5.8,9.2,6.5,15.9c1.5,15.7,1.1,26.3-2.2,38.6l2.9,6.9c3.6,1.7,12.7,6.2,7.7,13.5c7.1,3.7,17.7,7.6,26.5,15.2
		c3.5,2.9,7.3,6.2,10.6,9.9c6.4,1,5.7,1.5,10.4,4.4c13.9,8.5,36.2,25.4,49.1,37.4c2.2,1.3,3.1,2.2,4.9,3.2c0.3,0.5,0.4,0.7,0.3,0.8
		c-0.6,1.6-0.6,1.6-1.2,2.9c0.7,0.8,2,1.5,2.8,2.2c0.7,0.2,0.7-0.1,2-0.4c1.6,1.5,3.6,2.7,4.4,2.7c2.2-0.6,1.8-0.1,3.7-2.2
		c0.7-0.7,1.8,0,1.8,0c0.7-0.8,2.2-2.5,4.2-3.6c1.6-0.9,4.6-1,4.6-1c1,0,0.8,1.1,0.7,1.4c-1.2,0.6-3.6,1.2-5,2.3
		c-3,3.1-5.3,7.3-5.3,7.3c6-0.8,9.7,0.7,14.7,0.1c2.7-0.2,4.7,0,7.6-2.1c0,0,2.8-2,5.2-3c2.4-1,4.7-0.5,6.8,1
		c1.5,1.7,2.4,1.7,0.1,4.1c-0.8,0.9-2,2-3.5,3.4c-2.7,2.6-6.2,6.1-9.9,9c-3.7,2.9-8,5.6-10.7,6.8c-6.7,4.8-5.1,3.6-10.4,8.3
		c-0.7,0.6-2.4,1.7-3.3,2.2c-2.1,1.4-2.7,0.2-4.1-2.3c0,0-0.6-0.9-1.6-2.9c-1.1-2.2-2-4.7-1.6-4.6c-1.2-0.2-6.9-6.7-6.9-8.2
		c-1.2-0.3-6.3-5.2-6.4-6.1l-4.5-3.6c-5.1,1.1-6.3-2.1-19.9-11.7c-1.5,0-3.9-0.9-7.4-3.4c-6.1-4.9-20.8-16-23.3-17.3
		c-2.7-1.4-5.9-2.6-7.8-4.3c-2.9-0.5-4.5-0.8-6-1.3c-1.5-0.4-2.9-0.9-6.7-1.4c-6.2-0.8-12.6-3.3-18.7-6.4c-2.9-1.4-5.4-2.1-7.9-3.1
		c-5.6-2.4-10.4-4.5-14.1-5.3c-1.4-0.1-8.1-2.2-11.7-4.2c-1.2-0.6-1.9-1.2-2.7-1.4c-1.9-0.4-3,0.3-3.9,0.6
		c-4.5,2.4-8.8,4.4-12.7,6.5c-3.6,1.9-7,4-10.5,6c-3.2,1.9-6.9,3.6-10.7,5.4c0,0-10.9,5.4-16.8,7.6c-5.1,4.2-15.7,11.5-22.1,15.1
		c-3.2,1.5-9.3,5.4-12.2,6.3c-1.6,1.3-7.4,5.4-11.9,8.8c-3.5,2.6-6.1,4.8-6.1,4.8c-2,1.8-1.9,2.7-5.8,1c-1.1,0.9-1.9,1.4-2.6,1.9
		c-2.8,2-3,1.5-4.1,1.5c-1.9,1.7-2.2,0.8-3.9,2.8c-1.1,1.7,0,1.3-2.3,2.2c-0.5,0.2-0.7,0.8-1.1,1.1c-1.9,1.6-1.9,6-6.4,6.3
		c-2.6,1.9-2,4.1-4,4c0.1,1.9-3.6,4.8-4.2,4.8c-5.8,2-6.2-2.3-13.1,0.9c-0.9,0.4-2.2,1.5-4,1.9c-3.1,0.6-6.7,0-9-1.8
		c-3.5-2.7-6.8-8-6.8-8c-1.1-2.7-0.5-4.3,3-6.9c1.5-0.9,1.7-1.6,4.2-1.8c1.2-0.5,0.9,0.2,3.1-0.5c1.3-0.5,1.3-0.1,3.8-0.3
		c0.6-0.4,1.4-0.5,2.5-0.9c2-0.7,4-1.4,4-1.4s0.5-0.5,2.5-0.3c1.6-0.7,3.3-1.7,4.2-2c-0.2-2.6,0.1-2.5,1.3-3.5
		c1.5-1.3,1.8-1.1,2.9-0.3c0.5-0.3,0.7-0.4,0.6-0.8c-0.2-1.4-1.3-2-1-5c-0.5-1.2-1.3-2.7-1.1-3.6c0.2-1,0.5-1.4,1.1-1.7
		c0.6-0.3,0.8,0.1,1.2,0.5c0.6,0.7,1.1,2.7,1.1,2.7c0.2,2.3,0.9,5.3,3.2,3.6c1.3-1.4,1.6-5,4.3-4.2l2,1.7c1.7-1.6,1.7-1.6,2.7-2.2
		c0,0-1.6-1.6-0.2-2.8c0.9-0.8,2.1-1.4,4.1-3.6c5.5-6.1,8.3-8.7,14.2-13.6c11.8-9.7,25.3-16.6,33.9-20c2.8-3.5,5.5-5.9,11.7-6.5
		c7.4-12.4,21.5-23.6,24.7-25.3c2.6-4.8,3.8-4.3,7.2-5.2c2.7-2.2,3.4-2.2,4.6-4.5c1.2-4.7-2.7-17.3,7.3-18c2.1-3,1.6-2.3,4-5.1
		c-1.6-4-2.3-7.3-2.7-10.1c-0.1-0.3-4-3.1-2.9-6.7c-1.7-2-4.8-6.6-5.7-8.7c-0.4,0-0.8-0.2-1.3-0.2c-0.5-0.1-1.1-0.1-1.8-0.1
		c-1.6,4-3.3,4.3-6,5.2c-5,10.6-6.7,15-20.7,23.8c-5.6,6.2-7.4,13.2-7.3,13.1c-1,2.1-0.6,4.9-0.1,6.5c-0.7,2.3-0.5,2.5-0.5,2.5
		c0.3,0.9,1.1,2,2.1,2.3c1.7,0.4,3.4,0.4,3.3,2.3c-0.2,2.3-3.3,2-4.8,1.7c-5.6-0.9-3.8-4.5-7.4-3.3c-2.7,1.8-3.8,7.1-8.3,6.4
		c-0.6-0.4-0.4-1.6,0-2.4c0.6-1.3,1.7-2.4,1.1-2.9c-2.9,0.9-8.8,2.9-8.8,2.9c-2.7,0.8-5.8-0.6-3.1-2.4c1.3-0.5,3.1-1.1,5.3-2.5
		c0,0,1.1-1.6-1-0.8c-2.4,0.9-5.9,1.4-8.4,1.1c0,0-5.2-0.7-5.9-1.1c-0.7-0.4-1.3-2,0.3-2c2.1,0,7.3-0.6,11.3-1.7
		c1.9-0.8,5.6-2.9,7.7-4c0,0,2.3-3.3,3.5-3.9c2.1-2.4,3.8-3.8,5.6-6.2c1.8-3.7,3.6-9.5,9.6-18.6c2.7-4.2,6.1-9,10.4-13.4
		c0,0,1.1-7,6.7-11.9c1.2-2.9,3.1-6.3,4.9-9.5c0.7-1.2,1.4-2.3,2.1-3.4c1.7-2.7,3.5-7.8,10.3-8.6c0,0,2.9-2.1,4-3.6
		c1.7-1.5,1.3-3.8,2.7-5.4c-2.1-2.1-7.6-6-8.2-11.5c-0.6-5.8,1.5-10.6,5-14.1c3.9-3.9,8-5.8,13-5.5c6.2,0.9,7.4,3,9.4,5
		c1.9,1.9,2.6,0.7,3.4,3c5.2,1.4,4.9,0.8,4.9,4.6c0.8,1.1,2.1,2.1,2.1,4.3c1.8-3.6,2.1-4.3,6.8-8.3c1.1-3.3,1.9-6.5,2.8-9.7
		c0.9-3,2-6.1,2.9-8.4c-0.9-6.6,1-7.7,3.5-13.4c-0.5-0.8-0.4-1-0.2-2.3c1-3.8,2.5-8.9,3.5-12.2c0,0,0.3-1.3,1.7-1.4
		c1.2-4.2,2.9-11.9,3.2-13.5c1.2-4.4,0.4-5.8-0.5-8.2c-0.3-0.8-0.2-1.9-0.7-2.8c-1.5-2.5-3-5.8-4.1-8.2c-0.7-1.5-1.8-7.2-1.8-7.2
		C265,100.1,265.8,103,265.8,103"/>
</g>
</svg>
