<svg width="165" height="72" viewBox="0 0 165 72" fill="none" xmlns="http://www.w3.org/2000/svg">
<path d="M62.4473 11.207L62.543 12.752C63.582 11.5397 65.0039 10.9336 66.8086 10.9336C68.7865 10.9336 70.14 11.6901 70.8691 13.2031C71.9447 11.6901 73.4577 10.9336 75.4082 10.9336C77.0397 10.9336 78.252 11.3848 79.0449 12.2871C79.847 13.1895 80.2572 14.5202 80.2754 16.2793V26H76.9531V16.375C76.9531 15.4362 76.748 14.748 76.3379 14.3105C75.9277 13.873 75.2487 13.6543 74.3008 13.6543C73.5443 13.6543 72.9245 13.8594 72.4414 14.2695C71.9674 14.6706 71.6348 15.1992 71.4434 15.8555L71.457 26H68.1348V16.2656C68.0892 14.5247 67.2005 13.6543 65.4688 13.6543C64.138 13.6543 63.1947 14.1966 62.6387 15.2812V26H59.3164V11.207H62.4473ZM92.5254 26C92.3796 25.7174 92.252 25.2572 92.1426 24.6191C91.0853 25.722 89.791 26.2734 88.2598 26.2734C86.7741 26.2734 85.5618 25.8496 84.623 25.002C83.6842 24.1543 83.2148 23.1061 83.2148 21.8574C83.2148 20.2806 83.7982 19.0729 84.9648 18.2344C86.1406 17.3867 87.8177 16.9629 89.9961 16.9629H92.0332V15.9922C92.0332 15.2266 91.819 14.6159 91.3906 14.1602C90.9622 13.6953 90.3105 13.4629 89.4355 13.4629C88.679 13.4629 88.0592 13.6543 87.5762 14.0371C87.0931 14.4108 86.8516 14.8893 86.8516 15.4727H83.5293C83.5293 14.6615 83.7982 13.9049 84.3359 13.2031C84.8737 12.4922 85.6029 11.9362 86.5234 11.5352C87.4531 11.1341 88.4876 10.9336 89.627 10.9336C91.3587 10.9336 92.7396 11.3711 93.7695 12.2461C94.7995 13.112 95.3281 14.3333 95.3555 15.9102V22.582C95.3555 23.9128 95.5423 24.9746 95.916 25.7676V26H92.5254ZM88.875 23.6074C89.5312 23.6074 90.1465 23.4479 90.7207 23.1289C91.304 22.8099 91.7415 22.3815 92.0332 21.8438V19.0547H90.2422C89.0117 19.0547 88.0866 19.2689 87.4668 19.6973C86.847 20.1257 86.5371 20.7318 86.5371 21.5156C86.5371 22.1536 86.7467 22.6641 87.166 23.0469C87.5944 23.4206 88.1641 23.6074 88.875 23.6074ZM98.2539 18.4941C98.2539 16.1973 98.7917 14.3652 99.8672 12.998C100.952 11.6217 102.387 10.9336 104.174 10.9336C105.86 10.9336 107.186 11.5215 108.152 12.6973L108.303 11.207H111.297V25.5488C111.297 27.4902 110.691 29.0215 109.479 30.1426C108.275 31.2637 106.648 31.8242 104.598 31.8242C103.513 31.8242 102.451 31.5964 101.412 31.1406C100.382 30.694 99.5983 30.1061 99.0605 29.377L100.633 27.3809C101.654 28.5931 102.911 29.1992 104.406 29.1992C105.509 29.1992 106.38 28.8984 107.018 28.2969C107.656 27.7044 107.975 26.8294 107.975 25.6719V24.6738C107.018 25.7402 105.742 26.2734 104.146 26.2734C102.415 26.2734 100.997 25.5853 99.8945 24.209C98.8008 22.8327 98.2539 20.9277 98.2539 18.4941ZM101.562 18.7812C101.562 20.2669 101.863 21.4382 102.465 22.2949C103.076 23.1426 103.919 23.5664 104.994 23.5664C106.334 23.5664 107.327 22.9922 107.975 21.8438V15.3359C107.346 14.2148 106.361 13.6543 105.021 13.6543C103.928 13.6543 103.076 14.0872 102.465 14.9531C101.863 15.819 101.562 17.0951 101.562 18.7812ZM123.561 26C123.415 25.7174 123.287 25.2572 123.178 24.6191C122.12 25.722 120.826 26.2734 119.295 26.2734C117.809 26.2734 116.597 25.8496 115.658 25.002C114.719 24.1543 114.25 23.1061 114.25 21.8574C114.25 20.2806 114.833 19.0729 116 18.2344C117.176 17.3867 118.853 16.9629 121.031 16.9629H123.068V15.9922C123.068 15.2266 122.854 14.6159 122.426 14.1602C121.997 13.6953 121.346 13.4629 120.471 13.4629C119.714 13.4629 119.094 13.6543 118.611 14.0371C118.128 14.4108 117.887 14.8893 117.887 15.4727H114.564C114.564 14.6615 114.833 13.9049 115.371 13.2031C115.909 12.4922 116.638 11.9362 117.559 11.5352C118.488 11.1341 119.523 10.9336 120.662 10.9336C122.394 10.9336 123.775 11.3711 124.805 12.2461C125.835 13.112 126.363 14.3333 126.391 15.9102V22.582C126.391 23.9128 126.577 24.9746 126.951 25.7676V26H123.561ZM119.91 23.6074C120.566 23.6074 121.182 23.4479 121.756 23.1289C122.339 22.8099 122.777 22.3815 123.068 21.8438V19.0547H121.277C120.047 19.0547 119.122 19.2689 118.502 19.6973C117.882 20.1257 117.572 20.7318 117.572 21.5156C117.572 22.1536 117.782 22.6641 118.201 23.0469C118.63 23.4206 119.199 23.6074 119.91 23.6074ZM133.418 23.3477H141.293V26H129.289V23.8262L136.795 13.8867H129.426V11.207H141.006V13.3125L133.418 23.3477ZM147.486 26H144.164V11.207H147.486V26ZM143.959 7.36523C143.959 6.85482 144.118 6.43099 144.438 6.09375C144.766 5.75651 145.23 5.58789 145.832 5.58789C146.434 5.58789 146.898 5.75651 147.227 6.09375C147.555 6.43099 147.719 6.85482 147.719 7.36523C147.719 7.86654 147.555 8.28581 147.227 8.62305C146.898 8.95117 146.434 9.11523 145.832 9.11523C145.23 9.11523 144.766 8.95117 144.438 8.62305C144.118 8.28581 143.959 7.86654 143.959 7.36523ZM154.199 11.207L154.295 12.916C155.389 11.5944 156.824 10.9336 158.602 10.9336C161.682 10.9336 163.25 12.6973 163.305 16.2246V26H159.982V16.416C159.982 15.4772 159.777 14.7845 159.367 14.3379C158.966 13.8822 158.305 13.6543 157.385 13.6543C156.045 13.6543 155.047 14.2604 154.391 15.4727V26H151.068V11.207H154.199ZM104.816 51.7539C104.816 54.0417 104.297 55.8691 103.258 57.2363C102.219 58.5944 100.824 59.2734 99.0742 59.2734C97.4518 59.2734 96.153 58.7402 95.1777 57.6738V64.6875H91.8555V44.207H94.918L95.0547 45.7109C96.0299 44.526 97.3561 43.9336 99.0332 43.9336C100.838 43.9336 102.251 44.6081 103.271 45.957C104.301 47.2969 104.816 49.1608 104.816 51.5488V51.7539ZM101.508 51.4668C101.508 49.9902 101.212 48.819 100.619 47.9531C100.036 47.0872 99.1973 46.6543 98.1035 46.6543C96.7454 46.6543 95.7702 47.2148 95.1777 48.3359V54.8984C95.7793 56.0469 96.7637 56.6211 98.1309 56.6211C99.1882 56.6211 100.013 56.1973 100.605 55.3496C101.207 54.4928 101.508 53.1986 101.508 51.4668ZM107.018 51.4668C107.018 50.0176 107.305 48.7142 107.879 47.5566C108.453 46.39 109.26 45.4967 110.299 44.877C111.338 44.248 112.532 43.9336 113.881 43.9336C115.877 43.9336 117.495 44.5762 118.734 45.8613C119.983 47.1465 120.658 48.8509 120.758 50.9746L120.771 51.7539C120.771 53.2122 120.489 54.5156 119.924 55.6641C119.368 56.8125 118.566 57.7012 117.518 58.3301C116.479 58.959 115.275 59.2734 113.908 59.2734C111.821 59.2734 110.148 58.5807 108.891 57.1953C107.642 55.8008 107.018 53.946 107.018 51.6309V51.4668ZM110.34 51.7539C110.34 53.276 110.654 54.4701 111.283 55.3359C111.912 56.1927 112.787 56.6211 113.908 56.6211C115.029 56.6211 115.9 56.1836 116.52 55.3086C117.148 54.4336 117.463 53.153 117.463 51.4668C117.463 49.972 117.139 48.7871 116.492 47.9121C115.854 47.0371 114.984 46.5996 113.881 46.5996C112.796 46.5996 111.935 47.0326 111.297 47.8984C110.659 48.7552 110.34 50.0404 110.34 51.7539ZM127.115 59H123.793V38H127.115V59ZM134.279 59H130.957V44.207H134.279V59ZM130.752 40.3652C130.752 39.8548 130.911 39.431 131.23 39.0938C131.559 38.7565 132.023 38.5879 132.625 38.5879C133.227 38.5879 133.691 38.7565 134.02 39.0938C134.348 39.431 134.512 39.8548 134.512 40.3652C134.512 40.8665 134.348 41.2858 134.02 41.623C133.691 41.9512 133.227 42.1152 132.625 42.1152C132.023 42.1152 131.559 41.9512 131.23 41.623C130.911 41.2858 130.752 40.8665 130.752 40.3652ZM143.125 54.7891L146.256 44.207H149.688L144.561 59H141.676L136.508 44.207H139.953L143.125 54.7891ZM160.393 59C160.247 58.7174 160.119 58.2572 160.01 57.6191C158.952 58.722 157.658 59.2734 156.127 59.2734C154.641 59.2734 153.429 58.8496 152.49 58.002C151.551 57.1543 151.082 56.1061 151.082 54.8574C151.082 53.2806 151.665 52.0729 152.832 51.2344C154.008 50.3867 155.685 49.9629 157.863 49.9629H159.9V48.9922C159.9 48.2266 159.686 47.6159 159.258 47.1602C158.829 46.6953 158.178 46.4629 157.303 46.4629C156.546 46.4629 155.926 46.6543 155.443 47.0371C154.96 47.4108 154.719 47.8893 154.719 48.4727H151.396C151.396 47.6615 151.665 46.9049 152.203 46.2031C152.741 45.4922 153.47 44.9362 154.391 44.5352C155.32 44.1341 156.355 43.9336 157.494 43.9336C159.226 43.9336 160.607 44.3711 161.637 45.2461C162.667 46.112 163.195 47.3333 163.223 48.9102V55.582C163.223 56.9128 163.41 57.9746 163.783 58.7676V59H160.393ZM156.742 56.6074C157.398 56.6074 158.014 56.4479 158.588 56.1289C159.171 55.8099 159.609 55.3815 159.9 54.8438V52.0547H158.109C156.879 52.0547 155.954 52.2689 155.334 52.6973C154.714 53.1257 154.404 53.7318 154.404 54.5156C154.404 55.1536 154.614 55.6641 155.033 56.0469C155.462 56.4206 156.031 56.6074 156.742 56.6074Z" fill="white"/>
<g clip-path="url(#clip0)">
<path d="M39.0963 13.2765C37.5722 11.0352 36.2274 8.97312 34.9722 7.09038C34.7929 6.82142 34.524 6.55246 34.255 6.37315C33.1792 5.65591 31.7447 6.01453 31.0275 7.09038C29.862 8.97312 28.5172 10.9455 26.9034 13.2765C19.8207 23.6764 9.24152 39.3659 9.24152 48.3313C9.24152 54.876 11.9311 60.7932 16.2345 65.0966C20.5379 69.3103 26.4551 72 32.9999 72C39.5446 72 45.4618 69.3103 49.7652 65.0069C54.0686 60.7035 56.7582 54.7864 56.7582 48.2416C56.7582 39.2762 46.179 23.6764 39.0963 13.2765ZM46.5376 61.7794C43.0411 65.2759 38.2895 67.3379 32.9999 67.3379C27.7103 67.3379 22.9586 65.1862 19.4621 61.7794C15.9656 58.2829 13.9035 53.5312 13.9035 48.2416C13.9035 40.7107 24.0344 25.7384 30.7585 15.7868C31.5654 14.6213 32.2826 13.4558 32.9999 12.4696C33.7171 13.4558 34.4343 14.6213 35.2412 15.7868C41.9653 25.8281 52.0962 40.7107 52.0962 48.2416C52.0962 53.5312 49.9445 58.2829 46.5376 61.7794Z" fill="white"/>
<path d="M46.8962 46.6277C45.6411 46.5381 44.5652 47.5243 44.4756 48.7794C44.3859 50.7518 43.7583 52.6346 42.7721 54.2483C41.7859 55.8621 40.3515 57.2966 38.648 58.1931C37.5722 58.8207 37.1239 60.2552 37.7515 61.331C38.4687 62.5862 39.9032 62.9448 40.9791 62.3172C43.3997 60.9724 45.3721 59 46.7169 56.7586C48.1514 54.5173 48.9583 51.8277 49.0479 49.0484C49.1376 47.7932 48.1514 46.7174 46.8962 46.6277Z" fill="white"/>
</g>
<defs>
<clipPath id="clip0">
<rect y="6" width="66" height="66" fill="white"/>
</clipPath>
</defs>
</svg>
