<svg width="78" height="78" viewBox="0 0 78 78" fill="none" xmlns="http://www.w3.org/2000/svg">
<path d="M66.5771 11.4227C59.211 4.05676 49.4173 0 39 0C28.5826 0 18.7887 4.05676 11.4227 11.4227C4.05661 18.7889 0 28.5827 0 39C0 49.4173 4.05661 59.211 11.4227 66.5771C18.7889 73.9432 28.5826 78 39 78C49.4173 78 59.211 73.9432 66.5771 66.5771C73.9432 59.211 78 49.4173 78 39C78 28.5827 73.9432 18.789 66.5771 11.4227ZM39 73.4297C20.0154 73.4297 4.57031 57.9846 4.57031 39C4.57031 20.0154 20.0154 4.57031 39 4.57031C57.9846 4.57031 73.4297 20.0154 73.4297 39C73.4297 57.9846 57.9846 73.4297 39 73.4297Z" fill="white"/>
<path d="M57.6324 26.4865C56.7401 25.5943 55.2931 25.5943 54.4008 26.4866L34.2215 46.6659L23.5991 36.0434C22.7068 35.1512 21.2598 35.1512 20.3674 36.0434C19.475 36.9357 19.475 38.3827 20.3674 39.2751L32.6056 51.5133C33.0519 51.9595 33.6367 52.1826 34.2214 52.1826C34.8061 52.1826 35.3911 51.9594 35.8372 51.5133L57.6324 29.7181C58.5248 28.8258 58.5248 27.3789 57.6324 26.4865Z" fill="white"/>
</svg>
