<svg width="78" height="78" viewBox="0 0 78 78" fill="none" xmlns="http://www.w3.org/2000/svg">
<path d="M39 0C17.4958 0 0 17.4958 0 39C0 60.5042 17.4958 78 39 78C60.5042 78 78 60.5042 78 39C78 17.4958 60.5042 0 39 0ZM39 73.125C20.1831 73.125 4.87502 57.8169 4.87502 39C4.87502 20.1831 20.1831 4.87502 39 4.87502C57.8169 4.87502 73.125 20.1831 73.125 39C73.125 57.8169 57.8169 73.125 39 73.125Z" fill="white"/>
<path d="M41.4375 14.625H36.5624V40.0092L51.9015 55.3483L55.3483 51.9015L41.4375 37.9907V14.625Z" fill="white"/>
</svg>
