<?xml version="1.0" encoding="utf-8"?>
<!-- Generator: Adobe Illustrator 19.0.0, SVG Export Plug-In . SVG Version: 6.00 Build 0)  -->
<svg version="1.1" fill="#fff" id="Layer_1" xmlns="http://www.w3.org/2000/svg" xmlns:xlink="http://www.w3.org/1999/xlink" x="0px" y="0px"
	 viewBox="0 0 500 500" style="enable-background:new 0 0 500 500;" xml:space="preserve">
<g id="XMLID_1_">
	<path id="XMLID_654_" d="M75,209.5c0.1-0.5,0.4-1,0.4-1.5c0.9-13.8,3.3-27.3,7.6-40.5c11.2-34.8,31.1-63.6,59.7-86.4
		c20.5-16.3,43.6-27.4,69.2-33.2c15.3-3.5,30.9-4.8,46.6-4.1c42.3,2,79.2,17.3,110.2,46.1c28.8,26.8,46.6,59.7,53.5,98.5
		c1.2,6.6,1.9,13.4,2.4,20.1c0.4,6,0.8,12.1,0.3,18.1c-1.1,15-3.5,29.7-8.2,44c-6.5,20-16.2,38.4-29.1,54.9
		c-16,20.4-35.5,36.7-58.5,48.7c-17.7,9.2-36.4,15.1-56.2,17.6c-38.4,4.8-74.9-1.5-108.7-20.7c-31.4-17.8-55-43-71-75.4
		C83,275.5,77.3,254,75.5,231.4c-0.1-1.4-0.3-2.7-0.5-4.1C75,221.4,75,215.4,75,209.5z M249.4,390.3c1,0,2.1,0,3.1,0
		c10.5-0.3,20.9-1.2,31.2-3.3c35.6-7.5,66-24.6,90.9-51.1c30-31.9,45.5-70,46.8-113.8c0.4-11.5-0.7-22.9-2.8-34.3
		c-4.5-24-13.6-46.2-27.5-66.3c-18.9-27.5-43.6-48.1-74.4-61.1C287,47.9,256,43.9,224,48.9c-38.3,6-70.7,23.7-97.8,51.3
		c-12.4,12.7-22.3,27.1-30.2,43C85,165.8,79,189.6,78.4,214.8c-0.3,12.9,0.9,25.8,3.6,38.4c7.5,35.1,24.3,65.2,50.2,90.1
		c23.3,22.3,50.9,36.6,82.4,43.3C226,389.1,237.7,390.3,249.4,390.3z"/>
	<path id="XMLID_651_" d="M191.6,437.7c0,5.9,0,11.6,0,17.4c-2.7,0-5.2,0-7.9,0c0-13.2,0-26.4,0-39.7c0.1,0,0.3-0.1,0.4-0.1
		c6.5,0.1,12.9,0,19.4,0.3c2.5,0.1,5,0.9,7.4,1.8c7.4,3,7,12.3,2.4,16c-1.8,1.5-3.9,2.5-5.9,3.8c3.6,5.8,7.2,11.7,11,17.9
		c-2.7,0-5.2,0-7.6,0c-0.4,0-0.9-0.6-1.1-1c-3.1-5-6.2-10.1-9.3-15.1c-0.6-0.9-1.2-1.3-2.3-1.3C196,437.8,193.8,437.7,191.6,437.7z
		 M191.6,435.7c2.2,0.5,7.6,0.3,9.5-0.5c1.4-0.6,2.9-1.3,4.1-2.4c5.1-4.4,3.9-12-2.3-14.6c-3.7-1.6-7.5-0.8-11.3-1
		C191.6,423.5,191.6,429.5,191.6,435.7z"/>
	<path id="XMLID_650_" d="M263.4,419c-1.5,1.2-2.8,2.2-4.2,3.3c-0.7-0.7-1.4-1.3-2.1-2c-4-3.5-10.1-4-14.2-1.1
		c-3.2,2.3-3.6,6.2-0.7,8.9c2.4,2.3,5.5,3,8.7,3.8c2.9,0.7,5.9,1.4,8.7,2.4c3.7,1.4,6.4,3.7,6.7,8c0.3,5.4-2.4,9.8-7.3,12
		c-3.4,1.6-7.1,1.9-10.8,1.8c-5-0.2-9.8-1-14-4c-0.4-0.3-0.8-0.6-1.4-1c1.6-1.2,3.1-2.3,4.6-3.5c1.8,2.3,3.8,4,6.5,4.9
		c3.6,1.2,7.1,1.5,10.7-0.1c5-2.3,5.6-8,1.3-11.4c-2.1-1.6-4.6-2.3-7.1-3c-3.2-0.9-6.6-1.6-9.6-2.9c-3.8-1.7-5.5-5-5.2-9.2
		c0.3-4.2,2.5-7.3,6.2-9C248.1,413.2,255.9,413.8,263.4,419z"/>
	<path id="XMLID_647_" d="M277.3,455.2c1-2.1,1.8-3.9,2.6-5.7c5.1-11,10.2-22,15.3-33c0.4-0.9,0.9-1.3,1.9-1.2
		c1.6,0.1,3.3,0.1,4.9,0c0.8,0,1.2,0.2,1.6,1c5.4,12.7,10.8,25.4,16.2,38.1c0.1,0.2,0.1,0.5,0.3,0.9c-2.3,0-4.5,0.1-6.6,0
		c-0.4,0-1-0.6-1.2-1c-1.6-3.9-3.2-7.7-4.8-11.6c-0.4-0.9-0.9-1.3-1.9-1.3c-5.7,0.1-11.3,0-17,0c-0.9,0-1.4,0.2-1.8,1.1
		c-1.7,3.8-3.6,7.6-5.3,11.4c-0.5,1.2-1.2,1.7-2.5,1.5C278.6,455.1,278.1,455.2,277.3,455.2z M297.7,419c-3.2,6.9-6.2,13.3-9.3,19.9
		c5.9,0,11.6,0,17.5,0C303.3,432.3,300.6,425.8,297.7,419z"/>
	<path id="XMLID_646_" d="M362.9,446.4c1.8,0,3.5,0,5.2,0c-0.1,3.5-1.9,5.9-4.8,7.3c-2,1-4.3,1.6-6.6,2c-4.2,0.7-8.4,0.6-12.6-0.4
		c-6.3-1.5-10.4-5.5-12.1-11.7c-1.4-5.4-1.4-10.9-0.1-16.4c1.6-6.3,5.6-10.3,12-11.8c5.7-1.3,11.4-1.4,17,0.5c4.7,1.6,7.2,5,7.2,9.5
		c-2.2,0-4.4,0-6.6,0c-0.2-0.9-0.3-1.7-0.5-2.6c-1.4-5.3-6.4-8-12.1-6.8c-3.7,0.8-6,3.1-7.4,6.4c-1.9,4.4-2.3,9-2.1,13.7
		c0.1,3.3,0.5,6.6,1.4,9.7c2.2,7.8,9,9.6,15.2,8.3C359.9,453.3,362.2,450.6,362.9,446.4z"/>
	<path id="XMLID_645_" d="M412.1,415.4c0,0.8,0,1.5,0,2.4c-0.5,0-1,0-1.4,0c-5.3,0-10.6,0-15.9,0c-0.6,0-1.3-0.2-1.3,0.9
		c0,5,0,9.9,0,15.1c5,0,9.9,0,14.9,0c0,0.8,0,1.5,0,2.3c-4.9,0-9.8,0-14.8,0c0,5.6,0,11,0,16.6c6.1,0,12.3,0,18.5,0
		c0,0.5,0,0.9,0.1,1.2c0.1,1-0.3,1.3-1.3,1.3c-4.5-0.1-9,0-13.5,0c-3.4,0-6.7,0-10.1,0c-0.5,0-1,0-1.5-0.1c0-13.3,0-26.4,0-39.7
		C394.4,415.4,403.2,415.4,412.1,415.4z"/>
	<path id="XMLID_644_" d="M166.8,452.6c0,0.6,0,1,0,1.4c0.1,0.8-0.2,1.1-1.1,1.1c-8.1,0-16.2,0-24.3,0c-0.8,0-1.1-0.2-1.1-1
		c0-12.7,0-25.4,0-38.1c0-0.2,0.1-0.3,0.1-0.6c8.7,0,17.5,0,26.3,0c0,0.7,0,1.4,0,2.4c-6.1,0-12.2,0-18.4,0c0,5.4,0,10.6,0,16
		c4.9,0,9.8,0,14.8,0c0,0.8,0,1.5,0,2.3c-4.9,0-9.8,0-14.8,0c0,5.6,0,11,0,16.6C154.4,452.6,160.5,452.6,166.8,452.6z"/>
	<path id="XMLID_643_" d="M124.1,415.3c-1.6,4.2-3.1,8.2-4.5,12.1c-3.3,8.8-6.6,17.6-9.8,26.4c-0.4,1.1-1,1.5-2.1,1.4
		c-1.6-0.1-3.3,0-4.9-0.1c-0.4,0-1-0.4-1.2-0.8c-4.7-12.9-9.3-25.8-13.9-38.7c0,0,0-0.1,0.1-0.3c2.4,0,4.9,0,7.4,0
		c0.3,0,0.7,0.6,0.8,1.1c3.1,9.4,6.1,18.7,9.2,28.1c0.7,2.1,1.4,4.2,2.4,6.3c0.7-1.8,1.3-3.7,2-5.5c3.4-9.5,6.8-19,10.1-28.5
		c0.4-1.2,0.9-1.7,2.2-1.5C122.5,415.4,123.2,415.3,124.1,415.3z"/>
	<path id="XMLID_556_" d="M326.1,93.1c3.3-5.3,6.7-10.8,10.2-16.4c4.1,2.8,8.2,5.4,12,8.3c3.8,2.8,7.4,5.9,11.2,8.8
		c1,0.8,1,1.3,0.2,2.3c-2.2,2.3-4.3,4.7-6.4,7.2c-0.8,0.9-1.4,0.9-2.3,0.2c-2.8-2.4-5.7-4.7-8.5-7.1c-0.8-0.7-1.4-0.6-2,0.3
		c-0.9,1.4-1.9,2.6-3,4.1c5.1,4.5,10.2,8.9,15.6,13.5c4.3-4.6,8.7-9.2,13.2-14c2.8,3,5.4,5.5,7.6,8.2c4.2,5,8.2,10.2,12.3,15.4
		c0.7,0.9,0.6,1.5-0.3,2.1c-2.2,1.4-4.4,2.9-6.6,4.4c-0.5,0.4-1,0.7-1.6,1.1c2.7,1.6,5.2,3.2,7.8,4.7c0.3,0.2,0.9,0,1.2-0.2
		c1.7-1,3.4-2,5.2-3.1c1.3,2.2,2.8,4.4,3.9,6.7c1.9,3.7,3.6,7.4,5.6,11.1c1.5,2.9,3.1,5.7,4.7,8.5c1.3,2.2,1.3,4.6,1.7,7
		c0.1,0.6,0.2,1.2,0.5,1.8c3,4.9,5.4,10.1,6.7,15.7c0.7,3,1,6,1.6,9c0.4,2,0.9,3.9,1.3,5.9c0.1,0.5,0.1,1.3-0.2,1.5
		c-0.4,0.3-1.1,0.1-1.6,0c-0.4-0.1-0.8-0.4-1.4-0.8c0.2,2.2,0.4,4.2,0.6,6.6c-4,0.2-7.8,0.4-11.6,0.5c-0.3,0-0.7-0.6-0.8-0.9
		c-0.3-1.8-0.4-3.7-0.6-5.7c-2.5,0.5-4.8,0.5-7.1-0.9c0.3,2.4,0.6,4.5,0.8,6.6c0.3,4,0.6,8,0.8,12c0.1,1.3,0.4,1.7,1.8,1.7
		c5.2,0,10.5,0.1,15.7,0.1c1.8,0,1.9,0.1,1.9,2c-0.3,10.3-1.6,20.4-3.6,30.5c0,0.2-0.1,0.4-0.2,0.7c-3-0.6-5.9-1.1-8.9-1.7
		c-0.7-0.1-1.4-0.3-2.1-0.4c-1.4-0.1-1.4-0.8-1.2-2c0.8-4.2,1.4-8.4,2.1-12.7c0-0.3,0-0.5,0-1.1c-1.9-0.2-3.7-0.4-5.5-0.5
		c-0.3,0-0.8,0.6-0.8,1c-1.3,6.3-2.4,12.6-3.7,18.9c-0.5,2.7-0.6,2.7,2.1,3.4c4.9,1.3,9.8,2.7,14.8,4c0.9,0.2,1,0.7,0.7,1.5
		c-3.1,9.6-6.4,19.1-10.9,28.1c-0.6,1.2-1.1,1.3-2.3,0.7c-2.6-1.4-5.4-2.7-8-4.1c-0.4-0.2-0.9-0.5-1.4-0.8c1.9-4.5,3.8-8.9,5.8-13.6
		c-1.9-0.7-3.7-1.4-5.4-2c-0.3-0.1-1,0.2-1.2,0.6c-3,6.1-5.9,12.3-8.8,18.5c-0.1,0.1-0.1,0.3-0.2,0.6c5.4,3.1,10.9,6.1,16.6,9.3
		c-2.1,3.5-4,6.9-6.2,10.1c-3.9,5.4-8.1,10.6-12.2,15.9c-0.7,0.9-1.1,0.9-2,0.1c-2.6-2.4-5.3-4.7-8.1-7.2c3.2-4.2,6.3-8.4,9.6-12.7
		c-1.8-1.3-3.4-2.4-5.1-3.6c-4.8,5.8-9.6,11.6-14.5,17.4c4.5,4.4,9,8.8,13.7,13.3c-1.1,1.1-1.8,2-2.6,2.8
		c-6.6,6.8-14.2,12.5-21.8,18.2c-0.7,0.5-1.2,0.5-1.7-0.3c-1.8-2.8-3.7-5.5-5.6-8.2c-0.6-0.9-0.5-1.5,0.4-2.2
		c3.4-2.6,6.8-5.4,10.2-8c0.9-0.7,0.9-1.2,0.2-2c-1.1-1.2-2.2-2.5-3.4-3.8c-5.8,4.4-11.6,8.7-17.4,13.1c3.3,5.4,6.6,10.8,10,16.3
		c-8.8,5.1-17.6,10-27.2,13.8c-1-2.4-1.9-4.7-2.8-7c-0.4-1.1-0.8-2.3-1.2-3.3c-0.5-1.1-0.3-1.7,0.9-2.2c3.5-1.5,6.9-3.2,10.4-4.8
		c1.2-0.5,1.4-1.2,0.7-2.3c-0.8-1.4-1.6-2.8-2.4-4.1c-6.2,2.6-12.2,5.2-18.4,7.9c2,6,4,12.1,6.1,18.2c-9.1,2.8-18.2,5.4-27.7,6.8
		c-0.7-4-1.3-8-2.1-12.2c1.2-0.3,2.4-0.5,3.7-0.8c2.6-0.6,5.2-1.1,7.9-1.7c1.3-0.3,1.7-0.9,1.3-2.2c-0.5-1.5-0.7-3-1.1-4.6
		c-0.9,0.1-1.6,0.2-2.4,0.3c-5.2,1-10.4,2-15.6,2.9c-1,0.2-1.5,0.4-1.4,1.6c0.6,5.6,1.1,11.1,1.7,16.7c0.1,0.9,0,1.4-1.1,1.5
		c-8.3,0.5-16.6,1-25,0.5c-0.8-0.1-1.6-0.1-2.7-0.2c0.3-4.1,0.5-8.1,0.8-12.3c1.5,0,3,0,4.5,0c2.6,0,5.3,0,7.9,0
		c0.9,0,1.2-0.4,1.2-1.2c0-1.5,0-3.1-0.1-4.6c0-0.3-0.5-0.9-0.9-0.9c-5.6-0.3-11.3-0.4-16.9-0.7c-1,0-1,0.6-1,1.2
		c-0.5,4.4-0.9,8.9-1.4,13.3c-0.1,1.2-0.3,2.4-0.5,3.7c-0.1,0.7-0.4,1.1-1.1,1c-9.3-1.2-18.5-2.8-27.7-5.5c1.1-3.9,2.3-7.8,3.5-11.8
		c1.2,0.3,2.4,0.5,3.6,0.8c3,0.7,6.1,1.3,9.1,2c1.1,0.2,1.6-0.1,1.8-1.2c0.2-1.4,0.5-2.8,0.6-4.2c0-0.4-0.4-1-0.7-1.1
		c-6.1-1.6-12.2-3.1-18.5-4.7c-1.9,5.9-3.9,12-5.9,18.1c-9.9-2.9-18.9-7.2-27.9-12c2-3.7,4-7.3,6-11.1c1.9,1,3.8,2,5.7,2.9
		c2.1,1,4.2,2,6.3,3c0.8,0.4,1.2,0.2,1.6-0.6c0.6-1.6,1.4-3.2,2.1-5c-5.7-3-11.4-5.9-17.3-8.9c-3.3,5.3-6.6,10.7-10.1,16.3
		c-2.8-1.9-5.7-3.5-8.3-5.5c-5.1-3.8-10.1-7.8-15.2-11.7c-0.8-0.6-0.9-1.1-0.2-1.9c2.3-2.5,4.5-5,6.7-7.6c0.7-0.9,1.3-0.6,2.1,0
		c2.8,2.4,5.7,4.7,8.5,7c0.8,0.7,1.3,0.7,2-0.2c0.9-1.4,2-2.7,3-4.1c-5.2-4.5-10.2-8.9-15.5-13.5c-4.5,4.4-9,8.9-13.7,13.5
		c-2.9-3.1-5.8-6-8.5-9.2c-3.8-4.5-7.3-9.3-11.1-13.9c-0.8-1-0.6-1.6,0.4-2.3c3-1.9,5.9-4,9-6.1c1.2,1.7,2.4,3.3,3.7,4.8
		c1.6,2,3.2,4,4.8,6c0.7,0.8,1.3,0.8,2,0c1.2-1.2,2.5-2.2,3.8-3.4c-1.7-2.2-3.4-4.3-5-6.5c-2.4-3.5-4.8-7-7.1-10.5
		c-0.6-0.9-1-1-1.9-0.4c-4.9,2.9-9.8,5.8-14.7,8.7c-0.2,0.1-0.5,0.3-0.8,0.4c-5.8-9.1-10.4-18.7-13.9-29.2c3.8-1.4,7.6-2.7,11.5-4.1
		c0.7,1.8,1.3,3.4,2,5c1.1,2.6,2.4,5.2,3.5,7.8c0.4,0.9,1,1.2,1.8,0.8c1.6-0.7,3.2-1.5,4.7-2.3c-2.8-7.1-5.4-14-8.2-21.1
		c-5.9,1.8-12,3.6-18.1,5.4c-3.8-11.3-5.6-23-6.7-35.1c3.9-0.2,7.7-0.5,11.5-0.7c0.8,0,0.9,0.5,1,1.2c0.5,3.9,0.9,7.8,1.4,11.7
		c0.1,0.7,0.2,1.3,0.4,2c0.5,2.1,0.5,2.1,2.6,1.7c1.4-0.3,2.8-0.6,4.4-1c-0.4-2.7-0.8-5.3-1-7.8c-0.5-4.7-0.9-9.3-1.4-14
		c-0.2-1.7-0.3-3.4-0.3-5c0-1-0.4-1.3-1.4-1.3c-5,0-10,0-15,0c-0.5,0-0.9,0-1.4,0c-1.1,0-1.6-0.5-1.5-1.7c0.6-6.3,1.1-12.7,1.6-19.1
		c0-0.3,0-0.5,0.1-0.8c-0.5-0.2-1.2-0.3-1.6-0.7c-1.5-1.2-1.6-2.2-0.5-3.8c0.3-0.5,0.6-1,1-1.5c1-1.2,1.4-2.2,0.6-3.8
		c-0.6-1.1-0.6-2.5,0.1-3.8c0.5-0.9,0.3-2.1,0.7-3c1.3-4,2.8-7.9,5.3-11.3c2.4-3.3,3.5-7.3,5.1-11c1.6-3.9,3.5-7.7,5.2-11.6
		c0.4-1,0.9-1,1.8-0.5c2.1,1.1,4.3,2.2,6.4,3.3c0.7,0.4,1.2,0.3,1.9-0.1c1.8-1.1,3.7-2,5.5-3c0.6-0.3,1-0.9,1.6-1.5
		c-4.2-2.4-8.2-4.6-12.5-7c1.9-3.2,3.5-6.3,5.6-9.2c4.1-5.7,8.5-11.2,12.8-16.9c0.6-0.8,1.1-0.9,1.9-0.2c2.2,2,4.4,3.9,6.7,5.9
		c0.5,0.4,0.9,0.9,1.5,1.4c-3.2,4.2-6.3,8.4-9.5,12.5c0.7,1,1.3,1.2,2.1,0.4c3.7-3.3,7.7-5.9,12.1-8.2c0.7-0.3,1.2-1,1.7-1.6
		c1.2-1.4,2.5-2.8,3.8-4.4c-4.6-4.5-9.2-8.9-14-13.5c3.6-3.4,6.8-6.6,10.3-9.6c4.6-3.8,9.4-7.4,14-11.1c0.8-0.6,1.3-0.6,1.8,0.3
		c1.8,2.7,3.6,5.4,5.5,8c0.7,1.1,0.6,1.7-0.5,2.5c-3.3,2.5-6.6,5.2-9.9,7.7c-0.9,0.7-1.1,1.3-0.2,2.2c1.1,1.2,2.2,2.4,3.3,3.7
		c5.8-4.4,11.5-8.7,17.4-13.1c-3.3-5.4-6.6-10.8-9.9-16.1c2.1-2.1,22.6-12.5,27.1-13.9c1.1,2.8,2.3,5.6,3.4,8.4
		c1.3,3.3,1.2,3.3-2,4.7c-3,1.4-6,2.9-9,4.2c-0.9,0.4-1,0.9-0.5,1.7c0.7,1.3,1.5,2.6,2.2,3.9c0.5,0.9,1,0.3,1.5,0.1
		c5-2.1,10-4.3,15.1-6.5c0.7-0.3,1.4-0.6,2.2-0.9c-2-6.1-4-12.2-6.1-18.3c9.2-2.8,18.2-5.4,27.8-6.8c0.7,4,1.3,8,2.1,12.2
		c-1,0.2-2.2,0.5-3.3,0.7c-2.8,0.6-5.7,1.2-8.5,1.9c-1,0.2-1.4,0.8-1,1.9c0.5,1.6,0.8,3.2,1.1,4.8c0.8-0.1,1.5-0.2,2.3-0.3
		c5.2-1,10.4-2,15.6-2.9c1.1-0.2,1.6-0.5,1.5-1.8c-0.6-5.4-1.1-10.9-1.7-16.3c-0.2-1.4,0.3-1.7,1.5-1.8c8.6-0.5,17.1-0.9,25.7-0.4
		c1.1,0.1,1.5,0.4,1.4,1.6c-0.3,3.6-0.5,7.3-0.7,11c-4.5,0-9,0-13.6,0c0,2.1-0.1,4.1,0.1,6c0,0.3,0.9,0.6,1.3,0.7
		c4,0.2,7.9,0.3,11.9,0.4c0.2,0,0.4,0,0.5,0c0.8,0.1,1.2-0.2,1.3-1c0.1-0.8,0.2-1.5,0.3-2.3c0.3-1.9,1.6-2.5,3.2-1.3
		c0.2,0.1,0.3,0.3,0.7,0.5c0.4-3.5,0.7-6.8,1-10.2c0.1-1.3,0.3-2.5,0.5-3.8c0.1-0.4,0.7-0.9,1-0.9c9.4,1.2,18.7,2.7,27.8,5.6
		c-1.1,3.8-2.2,7.7-3.4,11.7c-1.1-0.2-2.1-0.4-3.2-0.7c-3.3-0.7-6.5-1.4-9.7-2.1c-0.9-0.2-1.3,0.1-1.4,0.9c-0.3,1.7-0.6,3.5-0.9,5.3
		c6.5,1.7,12.8,3.4,19.4,5.1c2-6,3.9-12,5.9-18.2c9.9,2.9,18.9,7.2,27.9,12c-2,3.7-4,7.4-6,11c-3.4-1.7-6.7-3.5-10.1-5
		c-3.7-1.7-2.8-1.6-4.3,1.6c-0.5,1-0.9,2-1.4,3.1C314.5,87.1,320.2,90,326.1,93.1z M207.1,208.5c0.8-0.2,1.3-0.2,1.8-0.4
		c2.5-0.8,5.1-0.7,7.7-0.4c6.7,1,13.4,2.2,19.9-0.8c0.3-0.1,0.8,0,1,0.2c0.2,0.2,0.2,0.7,0.1,1c-0.4,1.4-1.8,1.8-2.9,2.2
		c-3,1-6,1.3-9.2,1c-4.4-0.4-8.8-0.9-13.2-1c-6-0.2-10.3,2.8-13.5,7.6c-0.6,1-1.1,2.1-1.7,3.1c0.1,0.1,0.2,0.3,0.3,0.4
		c1.1-0.5,2.3-0.8,3.3-1.4c2.4-1.5,4.6-3.3,7-4.8c4.3-2.6,8.9-3.4,13.8-1.8c0.5,0.2,1.1,0.6,1.4,1c0.3,0.5,0.3,1.2,0.4,1.8
		c-0.5,0-1.1,0.1-1.6,0c-3.7-1.5-7.3-1.5-10.8,0.4c-2.7,1.5-5.3,3.2-7.9,4.9c-0.6,0.3-1.1,0.7-1.6,1.1c0.1,0.1,0.1,0.2,0.2,0.3
		c0.5-0.2,0.9-0.3,1.4-0.5c2.1-0.9,4.2-1.9,6.4-2.8c8.6-3.4,16.6-2.2,23.8,3.7c0.8,0.7,1.9,1.8,1.9,2.7c0,1.4-1.6,1.9-2.9,2.4
		c-2.7,1-5.5,1.9-8.3,2.7c-3.3,1-6.5,1.8-10,1.3c-4.2-0.6-7.9-2-11-5c-0.8-0.7-1.3-1.6-2.1-2.6c-0.5,0-1.4,0.3-1.6-1
		c0-0.1-0.5-0.2-0.7-0.2c-0.8-0.1-1.6-0.1-2.3-0.3c-1.5-0.3-2.1-1.3-1.6-2.7c0.4-1.2,1.1-2.4,1.8-3.5c0.7-1.2,1.5-2.4,2.3-3.8
		c-1.6-0.1-2.5,0.5-3.4,1.4c-1.9,2-4,3.9-6.7,4.8c-0.4,0.1-0.8,0.8-0.8,1.2c-0.1,1.8-0.3,3.7-0.1,5.5c0.5,5.4,1,10.8,1.9,16.1
		c1.9,11.1,5.9,21.6,11.1,31.5c2,3.8,3.6,7.7,7,10.6c2.7,2.3,5.1,4.9,7.8,7c5.1,4,10.3,7.9,14.7,12.8c1.2,1.4,2.5,2.7,4,3.7
		c1.1,0.8,2.6,1.6,3.9,1.7c4.4,0.2,8.8,0.4,13.2,0c6.3-0.5,11.9-2.6,16.4-7.4c3.5-3.6,7.4-6.7,11.2-10.1c3.2-2.9,6.5-5.6,9.4-8.7
		c5.1-5.2,8.7-11.6,12.2-17.9c1.4-2.4,2.6-5.1,3.3-7.8c2.2-8.2,4.5-16.4,5.1-25c0.5-6.8,1-13.6,0.5-20.5c-0.1-2-0.3-4.1-0.5-6.1
		c-0.1,0.1-0.2,0.1-0.3,0.2c-0.6-0.6-1.4-1.1-1.7-1.8c-1-1.8-1.6-3.8-2.7-5.6c-4-6.2-9.4-10.7-16.2-13.6c-7.2-3-14.8-4.3-22.4-5.3
		c-5.6-0.7-11.3-0.9-17-1.4c-3.5-0.3-7-0.4-9.9-2.9c-0.2-0.2-1-0.1-1.2,0.2c-2.7,3-5.9,5.4-9.3,7.5c-1.1,0.7-1.9,1.3-1.8,2.7
		c0,0.4-0.2,0.9-0.4,1.3c-2.2,3.3-4.8,6.2-8.5,7.8c-4.8,2.1-7.8,5.9-9.8,10.5C207.3,206.8,207.3,207.5,207.1,208.5z M92.8,262.2
		c0.4,0,0.6,0,0.8-0.1c5.5-1.4,10.9-2.8,16.4-4.3c1.6-0.4,1.8-0.4,2.3,1.2c0.8,2.8,1.5,5.7,2.6,8.4c2.1,5.2,4.5,10.3,6.8,15.4
		c0.4,0.9,0.3,1.3-0.6,1.8c-3.1,1.5-6.2,3.1-9.3,4.7c-0.8,0.4-1.3,0.3-1.7-0.5c-0.8-1.8-1.7-3.5-2.5-5.3c-1.2-2.7-2.4-5.5-3.7-8.3
		c-2,0.7-3.9,1.5-5.9,2.2c0.1,0.6,0.2,1,0.3,1.5c2.4,7.3,6,14,10,20.5c0.5,0.8,1,0.8,1.7,0.4c2.1-1.2,4.2-2.4,6.3-3.6
		c3.1-1.7,6.2-3.5,9.1-5.1c5.4,7.6,10.7,15,16,22.6c-2.9,2.5-6,5.3-9.3,8.2c-3.2-4.1-6.3-8.1-9.6-12.2c-1.7,1.2-3.5,2.4-5.1,3.5
		c0.1,0.3,0.2,0.5,0.2,0.6c4.2,6.5,9.1,12.5,14.6,18c0.6,0.6,1.1,0.6,1.7,0c1.7-1.7,3.5-3.4,5.2-5c2.6-2.5,5.2-5.1,7.7-7.4
		c6.7,5.7,13.1,11.2,19.7,16.8c-2.3,3.3-4.7,6.8-7.2,10.3c-3.9-2.9-7.7-5.8-11.6-8.7c-1.2,1.4-2.2,2.7-3.4,4
		c-0.6,0.7-0.5,1.2,0.2,1.7c5.6,4.1,11.1,8.3,16.7,12.4c0.7,0.5,1.3,0.5,1.8-0.3c3-4.8,6-9.5,8.9-14.3c0.6-1,1.1-1.2,2.1-0.5
		c0.9,0.6,1.9,1.1,2.8,1.7c0.2-0.5,0.1-0.7,0-0.8c-1.7-2.7-3.5-5.3-4.1-8.6c-0.1-0.4-0.5-0.7-0.8-1c-7.2-5.1-14-10.8-20.2-17.2
		c-10.9-11.1-19.9-23.6-26.3-37.9c-8-17.8-12.5-36.4-12.9-55.9c0-2.4,0-4.7,0-7.1c1.2,0,2.2,0,3,0c-0.3,47.6,18.7,85.4,56.2,114.5
		c0.2-0.5,0.3-0.6,0.3-0.7c0-6.1,1.3-12.1,2.3-18.1c0.2-1.6,0.1-3.3,0-4.9c-0.1-1.5-0.9-2.6-2.3-3.3c-3.5-1.9-5.9-4.7-6.8-8.6
		c-0.7-3.3-0.2-6.5,1.4-9.5c0.2-0.4,0.2-1.3-0.1-1.7c-2.1-2.8-3.1-6.1-3.7-9.5c-0.2-0.9-0.6-1.2-1.3-1.5c-1-0.5-2.1-1-2.8-1.8
		c-1.6-1.8-3-3.7-4.5-5.6c-0.1-0.2-0.2-0.4-0.3-0.6c-2.2-4.2-2.8-8.5-0.4-13c-0.6-0.3-1.1-0.6-1.6-0.8c-2.1-1-3.5-2.5-4.6-4.5
		c-0.4-0.9-1.1-1.7-1.8-2.3c-3.8-3.1-6.3-7-7.9-11.6c-0.2-0.5-0.4-1.1-0.5-1.5c-1.4,0.2-2.6,0.4-3.8,0.5c-3.8,0.3-6.8-1.7-9.7-3.8
		c-3.4-2.4-5.5-5.8-5.9-9.9c-0.2-2-1-3.2-2.6-4.1c-3.2-1.6-5-4.3-5.6-7.8c-0.2-1-0.1-2-0.2-3c-1.3,0.3-2.1,0.7-2.1,2.1
		c0,1-0.3,2-0.3,3c0,0.8-0.4,1.2-1.1,1.1c-3.8-0.3-7.6-0.5-11.7-0.8c0.6-4.4,1.1-8.5,1.6-12.6c-2.2,0.8-4.4,1.6-6.5,2.5
		c-0.3,0.1-0.6,0.7-0.6,1.1c-0.3,1.6-0.5,3.2-0.6,4.7c-0.3,4-0.5,8.1-0.8,12.1c-0.1,1,0.3,1.3,1.3,1.4c3.1,0,6.1,0.2,9.2,0.3
		c2.8,0.1,5.6,0.2,8.4,0.2c0,0.4,0.1,0.6,0.1,0.9c-0.1,10.8,1,21.4,3.3,31.9c0.2,1-0.3,1.1-0.9,1.2c-3.5,0.7-7,1.4-10.5,2.1
		c-0.3,0.1-0.7,0.1-1.2,0.1c-1-5.8-1.9-11.6-2.9-17.5c-1.8,0.3-3.5,0.5-5.2,0.7c-1,0.1-1.2,0.6-1,1.5c1,5.6,1.8,11.2,2.8,16.8
		C91.2,256.2,92.1,259.2,92.8,262.2z M339.1,257c0,0.2-0.1,0.3-0.1,0.3c0.1,0.4,0.2,0.7,0.3,1.1c0.8,3,0.9,6.3-0.5,8.9
		c-1,2-1.2,4-1.6,6c-0.1,0.4-0.2,0.7-0.3,1c-0.5,1.5-1.1,6.8-0.8,8.5c0.8,5.2-0.2,9.9-3,14.3c-1,1.6-2,3.2-2.7,4.9
		c-0.8,2-1.7,4.2-1.9,6.3c-0.3,4.2-0.1,8.5-0.3,12.8c-0.1,2.1-0.5,4.3-0.8,6.8c19.8-14.5,34.8-32.3,44.8-54.4
		c10.9-24,14.5-49.2,10.6-75.5c-2.2,0.6-3.5-0.4-4.8-1.8c-0.4-0.4-0.8-0.9-1.2-1.3c-0.9-0.8-1.7-0.9-2.8-0.2
		c-0.8,0.6-0.9,1.2-0.9,2.1c-0.2,3.3-0.5,6.7-3.4,9c-0.3,0.2-0.4,0.7-0.6,1c-0.4,1.1-0.6,2.4-1.2,3.4c-1.8,2.9-4,5.3-7.9,5.3
		c-0.2,0-0.5,0.2-0.7,0.3c0.3,0.6,0.5,1.1,0.7,1.6c2,5.2,1.4,10.3-0.4,15.3c-1.7,4.8-3.6,9.5-5.6,14.2c-1.4,3.3,0.2,5.8,2.1,8.2
		c0.5,0.6,1,1.1,0.5,1.7c-0.3,0.4-1.1,0.6-1.6,0.6c-1.5-0.1-3-0.5-4.5-0.7c-0.3-0.1-0.7,0-1.1,0.1c-1.3,0.2-2.7,0.5-4,0.5
		C343.1,257.4,341.1,257.2,339.1,257z M388.9,192.9c-1.1,1.5-2.1,2.8-3,4.1c-0.2,0.3-0.2,0.9-0.1,1.3c0.6,5.6,1.6,11.1,1.7,16.7
		c0.4,15.9-2.1,31.4-7.2,46.5c-5.2,15.4-12.8,29.5-22.8,42.3c-8.7,11-18.9,20.3-30.4,28.3c-0.5,0.3-1.1,0.7-1.3,1.2
		c-0.9,1.9-1.6,3.9-2.5,5.9c-0.6,1.2-1.2,2.3-2,3.4c-1,1.4-2.1,2.6-3.3,4c1.5,3,3.3,6.5,5.1,10c-0.6,0.3-1,0.6-1.5,0.8
		c-3.5,1.6-7,3.3-10.5,4.9c-0.9,0.4-1.2,0.9-0.8,1.8c0.6,1.3,1.1,2.7,1.7,4c0.4,0.8,0.9,1,1.7,0.6c3.7-1.8,7.5-3.4,11.1-5.2
		c2.8-1.4,5.4-3.1,8.4-4.8c-3.4-5.7-6.7-11.1-10-16.6c7.6-5.2,15.3-10,22-16.5c2.9,3.2,5.6,6.3,8.5,9.5c-1.5,1.4-2.9,2.8-4.4,4
		c-2.4,2-4.9,3.8-7.3,5.7c-0.5,0.4-1,0.7-0.4,1.4c1.1,1.4,2.2,2.9,3.3,4.4c7.4-4.8,13.9-10.4,20-17c-4.7-4.5-9.2-8.9-13.8-13.3
		c0.3-0.4,0.4-0.5,0.5-0.6c6-6.5,11.8-13.2,16.8-20.5c0.6-0.8,1.1-0.6,1.7-0.2c2.1,1.4,4.3,2.8,6.4,4.2c3.2,2.1,3.2,2.1,0.9,5.3
		c-2.4,3.3-4.9,6.6-7.4,9.9c0.2,0.3,0.4,0.6,0.6,0.8c1.1,0.9,2.2,1.8,3.3,2.7c0.7,0.6,1.2,0.5,1.8-0.2c5-6.1,9.7-12.3,13.4-19.3
		c0.2-0.3,0.3-0.6,0.4-1c-0.6-0.4-1.1-0.7-1.6-1c-4.5-2.6-9-5.3-13.4-7.9c-1.3-0.8-1.3-1-0.6-2.4c1.6-2.9,3.4-5.8,4.8-8.9
		c2.1-4.4,3.9-8.8,5.8-13.3c0.4-1,0.8-1.2,1.8-0.8c1.3,0.6,2.7,1,4.1,1.5c2.2,0.8,4.4,1.5,6.6,2.3c-0.2,0.6-0.3,1.1-0.5,1.6
		c-1.6,3.7-3.1,7.5-4.8,11.2c-0.4,0.9-0.3,1.5,0.5,1.9c1.2,0.6,2.5,1.1,3.7,1.7c0.8,0.3,1.3,0.1,1.6-0.7c1.7-4,3.6-7.9,5.1-11.9
		c1.4-3.5,2.4-7.1,3.6-10.7c-6.3-1.9-12.4-3.8-18.5-5.7c0.1-0.4,0.1-0.6,0.2-0.9c2.3-8.5,4-17,4.9-25.7c0.1-1,0.6-1.1,1.3-1.1
		c2.5,0.2,5.1,0.4,7.6,0.6c1.2,0.1,2.4,0.2,3.9,0.4c-0.7,5.3-1.4,10.3-2.1,15.6c2,0.4,3.9,0.8,5.9,1.2c0.2-0.8,0.5-1.4,0.6-2.1
		c0.5-2.8,1.2-5.6,1.5-8.5c0.5-4.7,0.7-9.4,1-14.2c0.1-0.9-0.4-1.3-1.3-1.3c-2.7,0-5.5-0.2-8.2-0.2c-3.1,0-6.3,0-9.5,0
		c0-0.9,0-1.4,0-1.9c0.1-7.4-0.6-14.7-1.5-22.1C391.8,195.5,390.1,194.4,388.9,192.9z M88.2,184.6c0.2-0.3,0.4-0.5,0.6-0.8
		c2.6-3.1,5.1-6.4,7.9-9.4c4-4.3,8.7-7.9,13.8-10.9c5.7-3.4,11.2-7.3,18-8.2c0.4,0,0.7-0.3,1.1-0.3c2.6-0.2,5.3-0.7,7.8-0.5
		c3.1,0.3,6.1,1.3,9.2,2.1c1.6,0.4,2.9,0.3,4.3-0.5c1.4-0.8,2.7-1.9,4.2-2.3c2.6-0.7,4.9-2.1,7.3-3.4c2.2-1.2,4.6-1.5,7-1.6
		c0.7,0,1.3,0.3,1.3,1.2c0,0.8-0.1,1.3-1.2,1.5c-6,0.8-11,3.9-15.1,8.2c-3.9,4.1-6.4,9.2-8,14.6c-0.1,0.4,0.2,1.2,0.5,1.4
		c1.4,0.7,2.8,1.4,4.3,1.9c5.2,1.6,10.2,1.3,14.8-1.8c3.5-2.4,6.9-4.8,10.4-7.3c3.3-2.4,6.8-4.5,10.9-5.4c6.6-1.5,12.9-0.8,18.9,2.5
		c3.6,2,7.2,3.9,11,5.6c3.9,1.7,8,2.3,12.1,0.9c1.4-0.5,2.8-0.9,4.1-1.5c4.8-1.9,8.1-5.3,10.1-10c1.1-2.6,1.8-5.3,2.8-7.9
		c0.3-0.8,0-1.2-0.6-1.5c-1.8-1.1-3.6-1-5.3-0.1c-1.6,0.9-3.2,2.1-4.6,3.4c-2.7,2.6-5.3,5.4-8,8c-3.8,3.6-8.5,3.7-13.1,2.2
		c-4.7-1.5-9.1-3.7-13.6-5.5c-1.9-0.8-3.9-1.6-5.9-2.1c-1.4-0.4-2.2-1.1-2.6-2.4c-0.1-0.4-0.5-0.9-0.9-1.1c-1.8-0.8-3.7-1.4-5.4-2.3
		c-4.1-2-8.2-3.2-12.7-1.1c-0.4,0.2-1.3-0.1-1.6-0.5c-0.3-0.4-0.3-1.1-0.2-1.7c0.1-0.4,0.5-0.9,0.8-1.2c2.3-2.3,4.4-4.9,6.9-6.9
		c2.8-2.3,6-4.1,9.7-3.8c4.9,0.4,9.4-1.6,14.4-1.6c-0.4-1-0.8-1.8-1.1-2.7c-1.6-4.4-4.2-8-7.8-11c-2.9-2.3-6-3.2-9.7-2.9
		c-1.2,0.1-2,0.6-2.8,1.5c-0.8,1-1.7,1.9-2.7,3c0.1,0.3,0.4,0.8,0.7,1.3c0.4,1,1,2.1,1.2,3.2c0.4,2.5,0,5-0.9,7.4
		c-1.8,4.6-4.7,8.3-9.2,10.5c-7.4,3.6-15.3,4.7-23.5,4c-6.3-0.6-12.7-1-19.1-1.3c-3.8-0.2-7.6-0.1-11.1,1.8c-2.8,1.5-5.5,3.3-8.1,5
		c-7.9,5.3-14,12.1-18.4,20.5C89.4,177.8,88.3,181,88.2,184.6z M179,187.5c-8.1,3.1-15.8,3.6-23.1-0.4c-7.6,2.5-12.8,0.1-16.4-7.2
		c-0.4,1-0.8,1.6-1,2.2c-0.8,2.8,0.6,4.9,2,7c1.9,2.8,3.7,5.7,5.3,8.7c1.3,2.5,2,5.3,2,8.2c0,6.5-1.7,12.4-5.7,17.6
		c-1.2,1.5-1.7,3.1-1.2,4.9c1.3,4.8,4,8.6,7.8,11.8c0.6,0.5,1.2,1,1.5,1.7c1.4,2.8,3.7,4.3,6.9,4.7c3.9,0.5,6.7-1.8,6.3-5.3
		c-0.1,0-0.3-0.1-0.4-0.1c-4.9,0.5-8.8-2.2-10.3-6.9c-0.5-1.8-0.4-3.3,0.9-4.7c1.4-1.4,3-2.1,5.1-1.4c2,0.7,3,2.1,3.6,4
		c0.4,1.3,0.8,2.6,1.4,3.9c1.2,2.7,3.3,3.7,5.7,2.6c0.7-0.3,1.4-0.7,1.8-1.2c1.2-1.7,2.5-3.5,3.4-5.4c1.1-2.4,1.9-4.9,2.9-7.3
		c0.2-0.6,0.5-1.2,0.8-1.9c-0.6-0.1-0.9-0.2-1.3-0.3c-2.5-0.7-4.7-1.8-6.1-4.1c-1.1-1.7-0.8-3.5-0.7-5.3c0.1-4.6,3.3-9.1,7.6-10.5
		c1.1-0.4,1.3-0.8,1-1.8c-1-3.4-1.3-6.8-0.4-10.3C178.5,189.8,178.7,188.8,179,187.5z M173.6,362.4c0.9,0.6,1.5,1.2,2.4,1.6
		c5.7,2.6,11.5,5,17.2,7.6c1.1,0.5,1.6,0.2,2-0.9c1.8-5.2,3.7-10.5,5.6-15.7c0.4-1,0.8-1.2,1.8-0.9c7.3,2.4,14.6,4.6,22.2,5.6
		c0.9,0.1,1.1,0.5,1,1.3c-0.4,2.6-0.9,5.2-1.3,7.8c-0.2,1.3-0.4,2.7-0.7,4c-4.9-1-9.5-2-14.3-3c-0.6,2.1-1.1,4.1-1.7,6.2
		c7.3,2.2,14.5,3.6,22,4.2c0.9-6.5,1.7-12.9,2.5-19c8.2,0.2,16.1,0.5,24.2,0.7c0.2,4.1,0.3,8.3,0.5,12.5c-0.8,0.1-1.5,0.2-2.2,0.2
		c-2.6,0-5.2-0.1-7.8-0.1c-1.4,0-2.9,0.1-4.3,0.2c-0.2,1.6-0.3,3.2-0.5,4.9c0,0.1,0,0.2,0,0.3c0,1,0.4,1.4,1.5,1.5
		c6.3,0.3,12.6,0.3,18.8-0.4c1.8-0.2,1.9-0.3,1.7-2c-0.5-5.4-1-10.7-1.5-16.1c-0.1-1.4,0.2-1.7,1.6-1.9c4.1-0.6,8.2-1.1,12.3-1.8
		c3.4-0.6,6.8-1.4,10.3-2.2c0.2,0.5,0.4,0.9,0.5,1.4c0.9,3.2,1.8,6.5,2.8,9.7c0.3,1.1,0,1.5-1.1,1.7c-3.6,0.7-7.1,1.6-10.7,2.4
		c-1,0.2-1.2,0.7-1,1.5c0.3,1.2,0.6,2.5,0.8,3.7c0.2,1.1,0.6,1.5,1.7,1.2c5.8-1.5,11.6-2.8,17.3-4.3c2.1-0.5,2.1-0.7,1.4-2.9
		c-1.5-4.9-3.1-9.7-4.6-14.6c-0.6-2-0.8-1.7,1.2-2.5c2.2-0.8,4.3-1.6,6.5-2.5c0.3-0.1,0.7-0.3,1.3-0.6c-0.6-0.1-0.9-0.2-1.2-0.2
		c-3.1-0.3-6.2-0.5-9.2-1c-1.7-0.2-3.2,0-4.8,0.4c-12.3,3.6-24.8,5.4-37.6,5.5c-13.8,0-27.4-1.9-40.7-5.7c-0.5-0.2-1.2-0.2-1.7,0
		c-3.9,1.4-7.8,2-11.9,1.6c-1-0.1-1.5,0.2-1.8,1.1c-0.8,2.4-1.8,4.8-2.7,7.1c-0.4,1-0.9,2-1.4,3.1c-4.6-2.2-9-4.3-13.5-6.4
		C175.6,358.8,174.6,360.5,173.6,362.4z M177.9,119.5c0.1-0.2,0.3-0.4,0.4-0.7c1.4-2.6,3.7-4.1,6.6-4.4c4.7-0.6,8.8,0.7,12.5,3.8
		c4.9,4.1,7.8,9.3,9.1,15.5c0.2,1,0.6,1.5,1.5,2c2.9,1.6,5.7,3.2,8.5,4.9c1,0.6,1.8,1.5,2.8,2c1.5,0.7,3.1,1,4.7,1.6
		c0.8,0.3,1.5,0.3,2.1-0.4c3.1-4.1,7.4-5.5,12.3-5.5c6.1,0,10,3.2,10.9,9.2c0.4,2.8,0.9,5.1,3.1,7.3c3.8,3.9,7.7,7.2,13.1,8.3
		c1.6,0.3,1.9-0.1,1.5-1.6c-0.1-0.3-0.6-0.6-1-0.7c-3.1-0.9-6.3-2-8.2-4.8c-1.3-1.9-2.4-4.1-3.4-6.2c-2.3-4.8-2.7-10-2.5-15.2
		c0.1-2.2,0.5-4.4,0.7-6.6c-1.3-0.1-2.4-0.1-3.6-0.2c-3.3-0.1-5.3-2.2-6.6-4.8c-0.7-1.3-1.5-2.2-2.6-2.9c-0.8-0.6-1.2-0.3-1.9,0.2
		c-1.8,1.4-3.7,3-5.8,3.7c-4,1.3-7.7-0.1-10.5-2.9c-1.4-1.4-2.7-2.6-4.7-3.5c-4.1-1.9-7-5-7.6-9.8c-0.1-0.4-0.3-1-0.7-1.2
		c-3.2-1.5-6.4-2.9-9.5-4.4c-4.1-1.9-8.4-3.6-10.7-8c-0.1-0.2-0.9-0.3-1.1-0.2c-1.3,1-2.6,2-3.6,3.3c-2.2,2.9-2.8,6.3-1.8,9.8
		c0.5,1.6,0,2.6-1.3,2.9c-2.9,0.7-5.4,2.2-7.6,4.2c-0.7,0.6-1.3,1.2-1.9,1.8C173.3,117.2,175.5,118.3,177.9,119.5z M270.1,56.7
		c-0.7,5.4-1.2,10.4-2,15.3c-0.4,2.1,0.5,3.2,1.9,4.2c0.7,0.5,1.6,0.9,2.5,1.2c2.4,0.8,4.8,1.5,7.2,2.3c2.5,0.9,4.8,2.1,6.3,4.4
		c0.6,0.9,1.2,1.1,2.2,0.9c1.1-0.1,2.2-0.4,3.2-0.3c6.6,0.4,11.9,3.4,16.6,7.8c1.5,1.4,3,2.6,4.7,3.7c3.3,2.1,6.8,4,10.2,5.9
		c0.5,0.3,1.1,0.5,1.6,0.5c4.9,0.4,9.2,1.8,12.7,5.5c3.3,3.5,6.5,7.1,10.7,9.7c2.1,1.4,4.1,3.1,6.2,4.5c1.2,0.8,2.6,1.6,3.9,1.7
		c0.8,0,1.7-1.3,2.6-2c0.8-0.7,1.6-1.4,2.4-2.1c1.6-1.4,3.1-2.7,4.8-4.2c0.3,0.4,0.5,0.6,0.7,0.9c2.7,3.4,5.4,6.9,8.2,10.3
		c0.3,0.3,0.9,0.8,1.1,0.7c1.7-1,3.3-2.1,5-3.2c-4.4-6.9-9.4-13-14.9-18.6c-0.6-0.6-1.1-0.6-1.7,0c-1.4,1.4-2.9,2.8-4.3,4.2
		c-2.9,2.8-5.8,5.7-8.6,8.3c-6.6-5.7-13.1-11.2-19.7-16.8c2.3-3.3,4.7-6.7,7.2-10.3c3.9,2.9,7.7,5.8,11.6,8.7c1.2-1.4,2.2-2.7,3.4-4
		c0.6-0.7,0.5-1.2-0.2-1.7c-5.6-4.1-11.1-8.3-16.7-12.4c-0.8-0.6-1.4-0.4-1.9,0.4c-2.9,4.7-5.9,9.4-8.8,14.1
		c-0.6,1.1-1.1,1.1-2.1,0.5c-4.8-2.7-9.6-5.4-14.4-8c-2-1.1-4.2-2-6.4-3c1.6-4,3.1-7.8,4.7-11.9c4.7,2.2,9.1,4.3,13.6,6.5
		c0.9-1.6,1.6-3.1,2.5-4.6c0.4-0.8,0.3-1.3-0.4-1.7c-0.4-0.2-0.7-0.6-1.1-0.7c-5.9-2.6-11.8-5.2-17.6-7.8c-1.1-0.5-1.6-0.1-2,1
		c-1.8,5.2-3.7,10.3-5.4,15.5c-0.4,1.2-0.8,1.4-2,1c-7-2.3-14.1-4.5-21.4-5.4c-0.6-0.1-1.1-0.2-1.8-0.4c0.7-4.4,1.4-8.6,2.1-12.9
		c4.8,1,9.5,2,14.3,3c0.5-1.9,1-3.6,1.4-5.5c0.1-0.3-0.4-0.9-0.7-1c-1.9-0.6-3.8-1.1-5.7-1.5C280.4,58.5,275.4,57.6,270.1,56.7z
		 M413.5,192.9c0.1-0.4,0.2-0.7,0.2-0.9c-0.2-2.4-0.3-4.8-0.8-7.1c-1.3-6.2-3.4-12-7.9-16.6c-0.3-0.3-0.6-0.6-0.7-1
		c-0.7-2.3-2.6-3.7-4.2-5.1c-4.6-4.3-9.3-8.5-14.1-12.5c-3.7-3.1-7.8-5.7-12.3-7.5c-5.7-2.3-11.6-4.1-17.9-4.5
		c-7.2-0.5-14.4-1.7-21.6-2.5c-6.4-0.8-12.4-2.6-17.6-6.5c-1.7-1.2-3.3-2.5-5-3.8c-0.6-0.5-1.1-0.5-1.7-0.1
		c-4.6,2.6-9.4,3.1-14.5,1.5c-2-0.6-4.2-1-6.3-0.8c-2.7,0.3-5.3,1.1-7.9,2.1c-3,1.2-5.9,2.7-8.8,4.1c-3.1,1.5-6.3,2.6-9.8,2.4
		c-0.9,0-1.7-0.1-3-0.1c0.7,0.6,1.1,1,1.5,1.4c3,2.2,6.5,2.8,10.1,2.8c4.5-0.1,8.9-0.5,13.4-0.6c2.8-0.1,5.7,0.1,8.1,1.6
		c1.9,1.2,3.6,0.9,5.3,0.4c3-0.9,5.9-2,8.9-3.1c5.7-1.9,11.4-2.4,17.2-0.9c5.4,1.4,11,1.7,16.5,1.7c5.3,0,10.3,1,15.2,2.8
		c1.5,0.6,2.9,1.6,4.5,1.8c3.3,0.5,6.4,1.6,9.3,3.2c5.3,2.9,8.8,7.7,12.7,12.1c0.9,1,2,1.9,2.7,3c1.2,1.8,2.3,3.8,3.4,5.7
		c1.4,2.3,2.8,4.6,4.3,6.9c0.7,1,1.6,1.9,2.2,2.9c2.5,4.5,6.4,7.7,10.3,10.9c0.6,0.5,1.3,0.8,1.9,1.2c0.8,0.6,1.5,1.4,2.2,2
		c1,0.8,2,1.7,3.1,2.5C412.7,192.4,413,192.6,413.5,192.9z M302.5,271c-0.3,0.2-0.6,0.3-0.7,0.5c-0.5,0.9-1,1.7-1.5,2.6
		c-4.2,7.2-9.4,13.4-15.8,18.8c-5.1,4.4-9.7,9.3-14.6,13.9c-1.2,1.1-2.5,2.4-4,3c-2.7,1.2-5.5,2.1-8.3,3c-5.2,1.6-10.5,1.2-15.9,1.2
		c-5.2,0-9.3-2.2-12.8-5.8c-4.4-4.7-9.3-8.8-14.5-12.6c-3.5-2.6-6.9-5.4-9.7-8.7c-4.7-5.4-7.7-11.9-10.6-18.4
		c-0.1-0.2-0.2-0.5-0.2-0.7c-0.1,0.1-0.3,0.2-0.4,0.3c0,1.2,0,2.4,0,3.6c0,1.4-0.2,2.8,0.2,4c1.8,6.2,4.1,12.2,7.6,17.6
		c3.1,4.8,6.7,9.3,10.4,13.7c3.6,4.2,7.6,8.2,12.4,11.1c2.1,1.3,4.2,2.5,6.7,1.2c0.3-0.1,0.6-0.2,0.9-0.2c4.5-0.9,8.9-1.3,13,1.5
		c0.2,0.2,0.7,0.2,0.9,0.1c3-1.4,6-0.7,8.9,0.4c0.5,0.2,1.3,0.1,1.8-0.1c3-1.6,6.2-2.8,9.6-3c3.3-0.2,5.8-1.7,8.2-3.6
		c3.7-2.9,7.3-5.8,10.4-9.5c2.5-3,5.4-5.5,8-8.4c4.7-5.2,8.8-10.9,12.7-16.7c0.7-1,0.7-1.7,0.2-2.7
		C304.5,275.2,303.6,273.2,302.5,271z M149.6,161c-2.5-0.7-5.2-1.4-7.9-2c-1.6-0.4-3.3-0.8-5-0.8c-4.4-0.2-8.7,0.5-12.7,2.2
		c-3.8,1.7-7.4,3.7-11,5.8c-9.9,6-18,14-24,24.1c-0.3,0.5-0.6,1-0.9,1.7c0.5,0,0.7,0,0.9-0.1c3.2-1.2,6.5-2.5,8.8-5.1
		c2.9-3.2,5.4-6.6,8.2-9.9c2.2-2.7,4.7-5.2,7.8-7c2.2-1.3,4.2-2.9,6.4-4.1c1.8-1.1,3.8-2,5.7-2.8c0.7-0.3,1.8-0.3,2.5,0.1
		c0.6,0.3,1.1,1.2,1.1,1.9c0.1,0.4-0.7,1.1-1.2,1.3c-1.2,0.5-2.6,0.8-3.9,1.3c-3.2,1.3-6.6,4.9-5.2,9.1c0.7,2,2,4,3.4,5.7
		c2.1,2.5,5.4,3.4,8.2,5c2.3,1.3,3.8,3.1,4.6,5.5c1.6,4.5,1,8.9-0.8,13.3c-1.8,4.3-7.8,8.7-13,7.7c-0.2,0-0.3,0-0.6,0.1
		c0.2,2.5,0.7,4.9,2.6,6.6c1.4,1.3,2.8,2.5,4.4,3.5c3.6,2.4,8.4,1.4,10.8-2.1c1.3-1.9,2.6-3.9,3.6-6.1c4.4-9.5,1.4-16.8-4.5-24.4
		c-2.8-3.6-4-7.4-2.6-11.8c0.4-1.2,1.1-2.3,2.4-2.3c2.2-0.1,4.2,0.3,5.1,2.7c1.3,3.3,4.2,4.1,7.4,4.4c0.4,0,0.9-0.1,1.6-0.2
		c-2-1.8-3.2-3.9-5.7-4.6c-1-0.3-1.9-1-2.6-1.7c-0.5-0.5-0.8-1.5-0.6-2.2c0.4-1.8,1-3.5,1.7-5.2C146.4,167.3,148.1,164.1,149.6,161z
		 M298.9,143.3c0.7,0.9,1.4,1.9,2.3,2.8c3.4,3.5,5.7,7.6,6.8,12.4c0.5,2.3,1,4.7,2.1,6.7c1.6,3,2.4,6.1,2.5,9.4
		c0,1.2,0.5,1.8,1.5,2.3c3.3,1.6,6.8,1.5,10.3,1.1c1.1-0.1,2.3-0.7,3.1-1.5c1.8-1.9,3.7-1.5,5.1-0.5c1.9,1.3,3.6,2.8,5.4,4.1
		c0.5,0.4,1.2,0.7,1.8,0.6c3.4-0.3,6,1,8.1,3.7c0.8,1,1.5,2,2.2,2.9c1.5,1.9,5.5,3.2,7.8,2.5c0.5-0.1,0.9-0.4,1.4-0.7
		c-3.7-5.5-2.8-15.2,1.7-21c-1.1-3.4-4.1-4.7-6.8-6.4c-2.7-1.7-6-1.9-9.1-2c-1.7,0-3.4,0.1-4.9,0.7c-1.8,0.7-3.6,1.1-5.5,0.9
		c-1.8-0.1-3.6-0.3-5.4-0.6c-5.8-0.8-11.3-2.5-15.8-6.3c-3.6-2.9-6.8-6.2-10.1-9.4C302.2,144.2,300.7,143.5,298.9,143.3z
		 M213.9,97.4c0.8,1.2,1.9,1.6,3.1,1.7c6.1,0.7,10.4,3.6,12.5,9.6c0.9,2.7,2.9,4.3,6.2,4.4c2.8,0.1,5.4,1.4,6.9,4.2
		c0.8,1.4,1.7,2.7,2.6,4c2.2,3.2,8.3,3.2,9.7-0.5c0.8-2,1.7-4,2.3-6.1c1.8-5.6,2-11.2,0.5-16.9c-0.2-0.6-0.3-0.9-1.2-1
		c-5.9-0.5-9.4-7.1-6.5-12.2c0.3-0.5,0.5-1,0.7-1.6c-5-1.3-9.7-1.3-14.2,0.7c-3.4,1.5-6.8,3.3-10,5.3
		C222.3,91.6,218.2,94.5,213.9,97.4z M369.9,156.2c-2.2-2.4-4.2-4.6-6.3-6.9c-0.6-0.7-1.1-1.5-1.7-2.1c-3.8-3.5-8.3-5.9-13.4-6.6
		c-4-0.5-8-0.6-12-0.7c-4.1-0.2-8.2-0.6-12.3-1.6c-3.7-1-7.6-1.7-11.5-0.7c-3.4,0.9-6.8,1.8-10.6,2.8c1.2,0.8,2.1,1.2,2.7,1.8
		c2.4,2.3,4.8,4.6,7,7.1c2.8,3,6,5.4,9.7,6.8c2.8,1.1,5.9,1.6,8.9,2.2c2.8,0.5,5.6,0.8,8.4,0.1c3.4-1,7-1.2,10.5-0.4
		c4.3,1,8.6,2,13.1,1.5C365.4,159.1,368,158.2,369.9,156.2z M263.9,328.3c-0.1,0.1-0.1,0.2-0.2,0.3c0.4,0.2,0.7,0.5,1.1,0.7
		c4.2,2.1,8.2,4.6,11.5,7.9c3.2,3.2,6.8,5.6,11.1,7.3c3.4,1.4,7,2,10.6,2.5c3.9,0.5,7.8,0.6,11.6-0.9c7.5-2.9,11-8.9,13.3-16.1
		c1.6-5.1,1.9-10.4,2.1-15.7c0.1-2.3-0.4-4.6-0.2-6.8c0.4-3.4,1.5-6.6,3.4-9.4c2.1-3.1,4-6.4,4.3-10.2c0.2-1.7-0.1-3.5-0.1-5.2
		c-0.2,0-0.3-0.1-0.5-0.1c-1.3,1.2-2.6,2.5-4.1,3.6c-2,1.5-3.3,3.4-3.9,5.8c-0.5,1.9-1.1,3.9-2,5.6c-1.9,3.7-3.3,7.4-3.3,11.6
		c0,1.5,0,2.9-0.2,4.3c-0.4,4.7-0.2,9.4-2.2,13.8c-1,2.3-2.2,4.5-3.3,6.7c-0.1,0.2-0.3,0.4-0.5,0.4c-2,0.4-4,1.3-5.9,1.1
		c-3.7-0.3-7.1-1.9-10.4-3.6c-5.8-2.9-11.6-5.8-17.5-8.4c-6.4-2.9-12.9-2.7-19.3,0.1c-0.3,0.1-0.6,0.3-0.9,0.5
		c0.7,1,1.4,1.7,2.6,1.1c0.6-0.3,1.3-0.2,2-0.3c5.7-0.3,10.5,1.8,14.8,5.2c4.5,3.6,9.2,7,14.8,9c5.7,2,11.5,3,17.5,1.5
		c0.4-0.1,0.9,0,1.4,0.1c-0.5,1.9-2.9,4-4.9,4c-2.6,0-5.3,0-7.9-0.3c-9.2-1.2-16.5-6.3-23.5-11.7
		C271.8,330.3,268.2,328.6,263.9,328.3z M189.4,88.8c0.8,1.6,1.5,2.9,2.1,4.2c0.4,0.9,0.9,1.1,1.9,0.6c10.6-4.9,21.6-8.4,33.2-10.3
		c2.8-0.5,5.5-1.3,8.1-2.6c6-2.7,12.3-3.3,18.6-0.8c0.3,0.1,0.7,0.2,1,0.2c2.4-0.7,4.1-2.1,5.5-4.6c-5.6,0-10.9,0-16.4,0
		c-0.2-4.4-0.4-8.6-0.5-13c5,0,9.6,0,14.7,0c0-2,0.1-3.9-0.1-5.7c0-0.4-0.7-1-1.1-1c-6.4-0.4-12.8-0.3-19.2,0.3
		c-1.4,0.1-1.8,0.7-1.6,2c0.6,5.3,1,10.7,1.6,16c0.1,1.3-0.3,1.9-1.6,2c-0.9,0-1.7,0.1-2.6,0.2c-6.3,1.2-12.6,2.4-18.9,3.6
		c-0.9,0.2-1.3,0-1.6-0.9c-0.8-2.9-1.6-5.7-2.4-8.5c-0.8-2.8-0.8-2.8,2-3.4c0.3-0.1,0.6-0.1,0.9-0.2c3.1-0.7,6.3-1.4,9.6-2.2
		c-0.5-2.2-1-4.2-1.4-6.4c-0.6,0.1-1.1,0.1-1.6,0.2c-5.9,1.5-11.7,3-17.6,4.4c-1.4,0.3-1.5,1.1-1.1,2.2c0.7,2.3,1.5,4.7,2.3,7
		c1,3.3,2,6.6,3,9.8C200.5,84.4,195.1,86.5,189.4,88.8z M244.3,327.5c-0.1-1.4-0.2-2.6-0.3-3.8c0-0.2-0.2-0.4-0.4-0.5
		c-1.7-0.6-3.4-1.4-5.2-1.6c-3.1-0.3-6.2,0.3-9.1,1.5c-5.1,2.2-10.2,4.4-15,7.1c-5.5,3.1-11,6-16.8,8.5c-3,1.3-6.1,2.1-9.3,0.9
		c-1-0.4-1.9-0.9-2.6-1.7c-2.3-2.3-2.8-5.4-3-8.4c-0.3-4.2-0.3-8.6,0.2-12.8c0.4-3.8,0.2-7.5-0.3-11.3c-0.5-4.3-2.5-7.6-6.4-9.7
		c-3.2-1.7-6.1-3.7-7.4-7.3c0-0.1-0.2-0.1-0.4-0.2c-0.1,0.5-0.2,0.9-0.2,1.3c-0.3,4,1.7,6.6,5,8.5c1.9,1.1,3.7,2.3,5.5,3.6
		c1.6,1.2,2.4,3,2.5,5c0,0.5-0.4,1.2-0.8,1.6c-0.3,0.2-1-0.2-1.4-0.3c-0.3-0.1-0.6-0.4-1.1-0.7c-0.5,2.7-1,5.2-1.4,7.7
		c-0.8,4.8-1.8,9.6-1.3,14.6c0.5,5.5,3.1,9.6,6.7,13.2c3.1,3.1,7,5.1,11.4,5.8c6.9,1.2,13.3-0.1,19.3-3.7c3.8-2.3,7.6-4.7,11.5-6.8
		c2.8-1.5,5.9-2.4,8.8-3.6c0.4-0.1,0.9-0.5,0.9-0.8c0.2-1.2,0.3-2.4,0.4-3.9c-1,0.4-2.1,0.8-3,1.3c-4,2.1-8,4.3-12,6.4
		c-3.2,1.6-6.5,3-9.7,4.7c-2.8,1.5-5.8,1.9-8.8,2.2c-0.8,0.1-1.7-0.3-2.5-0.6c-0.3-0.1-0.7-0.6-0.7-0.7c0.1-0.3,0.4-0.7,0.8-0.8
		c1.4-0.4,2.8-0.8,4.2-1.2c2.2-0.7,4.4-1.1,6.4-2.1c6.7-3.3,13.4-6.8,20-10.3c3.7-1.9,7.6-3.1,11.8-1.8
		C241.6,327.4,242.9,327.3,244.3,327.5z M334.1,215.4c1-1.6,2.1-3,2.9-4.5c1.2-2.3,5.7-4.5,8.5-4c2.5,0.5,4.8,1.4,6.9,2.8
		c2.1,1.4,4.4,2.2,6.9,2.4c2.6,0.2,4.8-1.1,5.5-3.4c-0.9,0.1-1.8,0.2-2.7,0.1c-3.3-0.1-6.3-1.1-8.3-3.8c-1.5-2-2.5-4.4-3.9-6.5
		c-1.6-2.5-1.7-5.3-2.1-8.1c-0.1-0.7-0.3-1.4-0.7-1.9c-0.4-0.7-1-1.2-1.4-1.8c-1.2-1.7-2.9-2.5-4.6-2.2c0.3,1.3,0.6,2.6,0.9,3.8
		c1,3.4-0.1,6.3-2,9c-0.3,0.5-1,0.7-1.5,1c-0.3-0.5-0.6-0.9-0.8-1.4c-0.2-0.4-0.4-0.9-0.5-1.4c-0.8-3.2-2.5-5.8-5-7.9
		c-0.7-0.6-1.4-0.8-2.1,0.2c-1.9,2.3-4.3,3.7-7.4,3.9c-3.9,0.3-7.7-0.2-11.3-2.4c-1.2,2.7-0.1,5.3,0.1,7.7
		c0.4,5.6,1.3,11.2,2.1,17.2c0.9-0.8,1.5-1.5,2.1-1.9c1.5-1,3.1-2.6,4.7-2.7c4.3-0.3,8.3,1.2,11.7,4.1
		C332.7,214.3,333.4,214.8,334.1,215.4z M254.5,133.1c-0.1,0.4-0.1,0.8-0.2,1.2c-0.5,5.7,0.9,11,3.4,16.1c2,4.1,5.3,6.5,9.9,7.4
		c3.4,0.6,6.8,0.6,10.2,0.1c3.2-0.4,6.4-1.2,9.6-1.3c5.3-0.1,10.5,1.1,15.3,3.6c1,0.5,2,0.9,3.3,1.5c-1-4.7-2.5-8.7-5.4-12
		c-1.1-1.2-2.1-2.5-3.2-3.7c-3-3.4-6.7-5.6-11.2-5.7c-5.2-0.1-10.4,0.3-15.6,0.5c-4,0.2-7.8-0.5-11.1-3
		C257.8,136.4,256.3,134.7,254.5,133.1z M306.6,197.3c0.2-0.1,0.5-0.2,0.7-0.3c0.1-0.5,0.2-0.9,0.2-1.4c-0.2-1.8-0.5-3.6-0.7-5.4
		c-0.6-5.2-3.6-9.1-7.4-12.3c-2.6-2.2-5.9-3.6-9.4-4.2c-4.4-0.8-8.8-1.5-13.1-2.5c-2.7-0.6-5.6-1.3-7.5-3.4c-1.4-1.5-2.9-1.6-4.6-2
		c-6-1.1-10.8-4.2-14.5-9c-0.3-0.4-0.9-0.7-1.4-1.1c-0.2,0.5-0.4,0.8-0.5,1.2c-1.5,5.5-4.1,10.6-6.9,15.5c-0.8,1.3-0.6,1.9,0.8,2.6
		c0.5,0.3,1.1,0.5,1.7,0.6c3.2,0.4,6.5,0.9,9.8,1.2c9.8,0.7,19.5,1.8,29,4.4c9.2,2.5,17.3,7,23.1,14.8
		C306,196.4,306.3,196.8,306.6,197.3z M155.3,86.8c-7.5,4.8-13.9,10.4-20,17c4.6,4.5,9.2,8.9,13.8,13.3c-0.7,0.8-1.1,1.4-1.6,2
		c0.6,0.1,1,0,1.4-0.1c3.3-0.9,6.6-1.8,9.8-2.8c0.4-0.1,0.8-0.4,1.2-0.6c5.6-4.9,11.6-9.3,17.8-13.3c0.4-0.2,0.8-0.6,1-1.1
		c1.1-3.1,2.1-6.3,4.5-8.4c-2.1-4.1-4.1-7.9-6.2-11.9c3.4-1.6,6.5-3,9.6-4.5c4.1-1.9,4.2-2.3,1.9-6.3c-0.1-0.2-0.3-0.4-0.3-0.6
		c-0.4-0.8-0.9-0.9-1.8-0.6c-3.9,1.8-7.8,3.6-11.6,5.5c-2.6,1.3-5.1,2.9-7.9,4.5c3.4,5.6,6.7,11.1,10,16.6c-7.6,5.2-15.3,10-22,16.4
		c-2.9-3.2-5.6-6.3-8.5-9.5c1.3-1.2,2.5-2.4,3.8-3.5c2.6-2.1,5.2-4.1,7.8-6.2c0.5-0.4,1.2-0.7,0.5-1.5
		C157.5,89.8,156.4,88.3,155.3,86.8z M323.3,283.4c-0.1,0-0.2,0-0.2,0c-2.5,3.3-4.9,6.6-7.4,9.9c-2,2.6-4.1,5.3-6.1,7.9
		c-0.7,0.9-1.5,1.8-2.3,2.7c-0.7,0.8-1.5,0.6-2.2,0.1c-0.6-0.5-0.5-1.2,0-1.8c2.7-3.3,5.3-6.8,8.2-10c3.4-3.7,5.6-8.2,7.9-12.5
		c0.3-0.6,0.4-1.2,0.5-1.8c-0.1-0.1-0.3-0.1-0.4-0.2c-0.4,0.6-0.9,1.1-1.3,1.7c-1,1.4-2,2.8-3.1,4.1c-0.3,0.3-1.1,0.2-1.7,0.3
		c0-0.5-0.1-1.1,0.1-1.4c1.3-2.4,2.7-4.8,4.1-7.2c0.4-0.7,0.7-1.3,0-2c-1.5-1.7-3-3.4-4.6-5.2c-2.6,4.9-5,9.7-7.8,14.3
		c-2.9,4.6-6,9-9.4,13.2c-3.4,4.2-7.2,8.2-11,12.1c-3.8,3.8-7.8,7.5-12,11.4c1.8,0.5,3.7,1.1,5.6,1.6c0.4,0.1,1.1-0.3,1.4-0.6
		c3.1-2.6,6.1-5.2,9.1-7.8c1-0.9,1.9-1.9,3-2.8c0.3-0.2,0.9-0.3,1.1-0.1c0.3,0.2,0.4,0.8,0.3,1.1c-0.3,0.7-0.6,1.3-1.1,1.8
		c-3.1,3-6.3,5.9-9.5,8.8c-1,0.9-1,1.2,0.1,1.8c0.8,0.4,1.6,0.9,2.5,1.1c0.6,0.1,1.5,0,1.9-0.4c2.1-1.7,4.2-3.3,6.1-5.2
		c4.4-4.3,8.8-8.6,12.9-13.1c2.6-2.8,4.8-6,7.1-9c2.5-3.4,4.9-6.9,7.3-10.3C323,284.9,323.1,284.1,323.3,283.4z M213.4,347.7
		c24.1,6.5,48.1,6.7,72.2,0.3c-5.8-1.9-9.7-6.5-14.3-10.2c-0.5,0.8-0.9,1.4-1.4,2c-1.4,1.7-3,3.4-5.4,3.3c-2.5-0.1-5-0.5-7.4-1.1
		c-1.5-0.4-2.4-0.7-3.9,0.5c-3.9,2.9-13.5,3.2-16.9-3.5c-0.8-1.5-1.7-1.6-3.1-1.3c-3.6,0.8-6.9,2.2-10.1,4.1c-2.7,1.6-5.3,3.3-8,5
		C214.5,347.1,213.9,347.4,213.4,347.7z M318.2,104c-0.4-0.5-0.5-0.6-0.6-0.7c-0.4-0.3-0.7-0.5-1.2-0.7c-5-2.5-9.2-6.1-13.4-9.8
		c-2.5-2.2-5.4-3.8-8.6-4.9c-4.8-1.6-10.7,0.9-12.6,5.3c-1.1,2.5-2,5-2.5,7.6c-0.8,4.7-1.3,9.5-1.9,14.3c-0.1,1-0.2,2.1-0.3,3.1
		c0.1,0.1,0.2,0.1,0.4,0.2c0.7-0.6,1.4-1.1,2.1-1.7c2.8-2.2,5.5-4.7,8.5-6.6c2.7-1.8,6-2.8,9.3-2.1c4.1,0.8,8.1,0.7,12-0.6
		C312.2,106.4,315.1,105.2,318.2,104z M123,143.4c0.1,0.2,0.2,0.4,0.3,0.5c0.5,0,1,0,1.5,0c6.4,0.2,12.8,0.3,19.2,0.8
		c8,0.6,15.7,0.6,23.4-2.3c4.8-1.8,8-5,10.5-9.3c0.4-0.7,0.2-1.1-0.5-1.3c-3.4-1-6.6-2.4-10.1-2.9c-8.1-1.2-16.1-0.4-23.8,2.4
		c-4.4,1.6-8.7,3.7-12.8,6.1C127.9,139,125.6,141.4,123,143.4z M183.3,286.3c-1.6,1.5-1.8,1.9-1.1,3.8c0.2,0.6,0.5,1.3,0.7,1.9
		c1.5,5.9,4.3,11.2,7.7,16.2c3.6,5.3,7.9,10.1,12.5,14.6c1.9,1.9,4.2,3.3,6.3,4.9c0.8,0.6,1.7,0.8,2.5-0.3c-2.2-2.1-4.4-4.2-6.5-6.3
		c-0.7-0.7-1.4-1.5-2-2.4c-0.2-0.3-0.3-0.9-0.1-1.2c0.2-0.3,0.8-0.5,1.1-0.4c0.7,0.1,1.5,0.3,2,0.8c2.4,1.9,4.6,3.8,6.9,5.7
		c1.7,1.4,3.3,2.3,5.4,0.7c1.2-0.9,2.8-1.5,4.3-2.3c-14.9-11.5-26.3-25.3-32.1-43.5c-1.3,1.2-2.5,2.4-3.8,3.4
		c-0.8,0.7-1.1,1.4-0.7,2.3c1.4,3.7,2.8,7.5,4.2,11.2c0.5,1.4,1.2,2.9,1.6,4.3c0.1,0.5-0.3,1.2-0.6,1.6c-0.2,0.2-1.1-0.2-1.4-0.5
		c-0.5-0.4-0.9-1-1.1-1.7C187.1,295.1,185.2,290.7,183.3,286.3z M314.6,123.1c-0.1,0.1-0.2,0.2-0.3,0.3c0.4,0.6,0.8,1.2,1.3,1.7
		c3.5,3.2,7.4,5.6,12,6.4c7,1.2,14.1,1.8,21.1,2.8c5.3,0.7,10.5,1.5,15.8,2.5c8,1.6,15,5.5,21.8,9.8c0.5,0.3,1.1,0.7,1.5,1.1
		c5.2,4.7,10.3,9.4,15.4,14.1c0.6,0.5,1.2,1,1.8,1.5c0.1-0.1,0.3-0.2,0.4-0.3c-0.6-1.3-1.3-2.7-1.9-4c-1.8-4.1-4.6-7.5-7.6-10.7
		c-2.2-2.4-4.8-4.6-7.4-6.6c-3.2-2.5-6.3-5.1-9.9-7c-4.4-2.4-9.1-4.1-13.7-6c-4.1-1.7-8.5-1.5-12.8-2.1c-1.5-0.2-3.2,0.2-4.7,0.2
		c-6.8,0.2-13.6,0.3-20.5,0.4c-4.2,0.1-8.1-0.7-11.4-3.4C315.3,123.4,314.9,123.3,314.6,123.1z M367.9,160.6
		c0.1,0.3,0.2,0.4,0.2,0.4c0.2,0.1,0.5,0.2,0.7,0.4c4.4,2,7.8,5.2,10.3,9.3c3.2,5.4,6.2,11,9.5,16.4c2.3,3.8,5.4,6.9,9.3,9.3
		c1.4,0.8,2.7,0.9,4.1,0.4c0.6-0.2,1.4,0,2,0.2c1.6,0.5,3.2,1.2,4.9,1.7c1.3,0.4,2.5-0.3,3-1.5c0.6-1.3-0.3-1.9-1.2-2.5
		c-2.5-2-5.1-3.9-7.6-6c-6.4-5.3-11-12-15.4-19c-3.4-5.4-6.7-11-11.1-15.7c-3.1-3.3-6.3-6.3-10.4-8.3c-0.9-0.4-1.8-0.8-2.8-1.1
		c-0.1,0.1-0.2,0.2-0.2,0.4c2,2.4,4,4.9,6.2,7c1.1,1.1,2.8,1.8,4.2,2.7c0.3,0.2,0.8,0.5,0.8,0.8c0,0.4-0.3,1-0.7,1.2
		C371.8,157.9,369.8,159.2,367.9,160.6z M337.1,112c-2.6-4.5-8.2-6.4-12.3-6.4c0,0-0.1,0-0.1,0c-3.1,0.9-6.2,1.6-9.2,2.8
		c-5.2,2-10.4,3.8-16.1,2.6c-4.2-0.9-8.1,0-11.5,2.4c-1.9,1.3-3.7,2.8-5.4,4.4c-3.3,3.2-6.4,6.5-9.8,10c0.9-0.3,1.5-0.5,2.1-0.7
		c2.6-1,5.2-2.3,7.9-3.1c4.1-1.3,8.3-2.4,12.7-1c5.3,1.7,10.2,0.9,14.9-2.1c2.2-1.4,2.3-1.7,1.1-4.1c-0.5-1-0.1-1.7,0.9-1.9
		c2.7-0.5,5.5-0.9,8.2-1.4c5-1,9.9-2,15-1.5C336,112.2,336.5,112.1,337.1,112z M334.4,226.8c0.7,0.2,1.2,0.4,1.6,0.5
		c4.8,1.2,8.6,4.7,9.4,9.5c0.3,2,0.5,4,0.7,6c0.3,3.4,0.4,6.8,2.9,9.5c0.3,0.3,0.6,0.5,1,0.9c-0.1-1.4-0.4-2.7-0.1-3.9
		c0.9-4.7,2.6-9.2,4.7-13.4c1.5-3.1,2.5-6.4,2.9-9.7c0.3-2.7,0.2-5.4-1-7.9c-0.7-1.3-1.7-2.5-2.8-3.6c-0.8-0.8-2-1.3-3-1.9
		c-1.5-0.8-2.9-1.7-4.5-2.2c-3.9-1.3-8.3,2.1-8.2,6.1c0.1,3-0.4,5.8-2.4,8.2C335.1,225.3,334.9,226,334.4,226.8z M212.6,173.8
		c0-0.2,0-0.3,0.1-0.5c-0.3-0.2-0.6-0.4-0.9-0.6c-2.3-1.3-4.6-2.4-6.8-3.8c-2.6-1.6-5.5-2.6-8.4-2.9c-6-0.7-11.7,0.8-16.6,4.4
		c-2.6,1.9-5.2,3.8-7.8,5.8c-4.8,3.6-9.9,6.2-16.2,6.1c-0.3,0-0.7,0.1-1.4,0.2c1,0.8,1.7,1.4,2.5,1.9c2.7,1.4,5.6,2,8.7,2.1
		c5.4,0.2,10.4-1.6,15.1-4.1c1.8-1,3.6-2.1,5.3-3.3c2.4-1.7,4.9-3.1,7.7-3.6c4.2-0.6,8.5-1,12.7-1.4
		C208.6,174,210.6,173.9,212.6,173.8z M326.8,282.2c0.1,0,0.2,0,0.3,0c0.2-0.1,0.4-0.3,0.6-0.4c2.1-1.2,3-3.5,4.5-5.2
		c2.5-3,2.8-6.2,1.5-9.7c-1-2.8-2.6-5.1-4.6-7.2c-3.5-3.6-6.9-7.2-10.5-10.8c-2.7-2.7-4-6.1-4.8-9.8c-0.3-1.4-0.6-2.7-0.9-4.4
		c-1.1,5.4-2,10.4-3,15.4c-0.2,1-0.2,2,0,2.9c0.7,3.6,2.4,6.7,4.7,9.4c2.3,2.9,4.9,5.6,7.3,8.5c1.9,2.2,3.4,4.6,4,7.5
		C326.2,279.7,326.5,280.9,326.8,282.2z M171.5,286.5c0.1,0,0.3,0,0.4,0c0.2-0.4,0.4-0.8,0.6-1.3c1-2.2,1.8-4.6,3-6.7
		c2.5-4.1,6-7.4,10-10.2c0.8-0.5,1.6-1,2.4-1.6c2.5-2,3.2-4.8,2.6-7.7c-0.6-2.8-1.5-5.5-2.3-8.3c-0.1-0.4-0.4-0.8-0.7-1.3
		c-0.9,0.8-1.5,1.6-2.4,2c-2,1.2-4,2.3-6.2,3.2c-3.6,1.5-6.6,3.8-9.2,6.7c-3.1,3.5-4.4,7.6-3.4,12.2c0.5,2.2,1.1,4.4,2.9,5.9
		c1,0.8,1.4,1.7,1.5,2.9C171,283.8,171.3,285.1,171.5,286.5z M245,146.2c-0.3-2.1-1.9-3.7-3.8-4.1c-5.7-1-10.3,0.7-13.9,5.3
		c-0.4,0.5-0.8,1-1.2,1.5c-0.7,0.9-1.5,0.8-2.2,0.1c-0.6-0.5-1-1.3-1.7-1.6c-4.7-1.9-9.5-2.7-14,0.1c-3,1.9-5.6,4.5-8.6,7
		c1.4,0.7,2.5,1.3,3.6,1.8c4.5,2.2,9.1,4.2,14.1,5.1c2.9,0.5,5.8,0.3,8.1-1.7c1.9-1.6,3.6-3.5,5.4-5.4c0.9-0.9,1.7-1.9,2.6-2.8
		C236.5,148.3,240.2,146.2,245,146.2z M261,96.5c0.2,0.7,0.3,1.2,0.4,1.6c1,3.7,1.4,7.6,0.8,11.4c-0.9,5.9-2.8,11.5-6.2,16.5
		c-0.7,1-0.4,2.8,0.5,3.5c3.4,2.6,8.1,2.3,11.1-0.7c0.5-0.5,1.1-1,1.6-1.5c0.5-0.6,1-1.2,1.4-1.8c0.5-0.9,0.9-1.8,1.3-2.7
		c0.4-1,1-2,1.2-3c0.6-3.7,1.2-7.4,1.6-11.1c0.1-1.2-0.1-2.6-0.7-3.6c-2.5-4.1-6.2-6.9-10.8-8.3C262.6,96.5,261.9,96.6,261,96.5z
		 M269.6,161.8c0.2,2.9,1.9,4.6,4.6,5.2c4.1,1,8.1,2,12.2,2.9c4.7,1,9.4,2.1,13.6,4.7c1,0.7,2,1.4,2.8,2.3c1.8,2,3.4,4.2,5.1,6.3
		c0.2-0.1,0.3-0.1,0.3-0.2c0.1-0.2,0.2-0.4,0.3-0.6c1.3-2.8,1.2-5.8,1-8.7c-0.2-4.7-2.7-7.9-6.8-9.9c-2-1-3.9-1.9-5.9-2.8
		c-0.5-0.2-1.1-0.4-1.7-0.5c-4.3-0.9-8.6-0.9-13-0.1C278.1,161.1,273.9,161.3,269.6,161.8z M264.1,75.1c-0.4,0.8-0.7,1.5-1,2.1
		c-1.5,2.8-4,4.5-6.7,5.9c-2.2,1.1-3.5,2.9-3.8,5.3c-0.2,1.7,0.5,3.2,2.1,3.8c1.5,0.5,3.1,0.7,4.7,1c1.4,0.2,2.8,0.1,4.2,0.4
		c3.6,0.8,6.8,2.6,9.6,5c0.7,0.6,1.4,1.2,2.3,1.9c0.3-0.8,0.7-1.5,0.9-2.1c1.4-4.1,2.6-8.4,6.2-11.2c0.3-0.2,0.3-1.1,0.1-1.3
		c-1-1-2-2.2-3.2-2.8c-1.9-0.9-3.9-1.5-5.9-2c-3.5-0.9-6.8-2.2-8.9-5.3C264.6,75.4,264.4,75.3,264.1,75.1z M350.6,192.3
		c0.2,1.3,0.1,2.3,0.5,3.2c1.2,2.4,2.5,4.8,3.8,7.1c1.2,2,3.3,2.8,5.4,3.5c3.5,1.1,9.8-2.5,9.9-7.5c0-1,0.1-2,0.1-3
		c0.1-2,1.4-3.7,3.5-4.4c1.9-0.7,3.4-0.2,4.8,1.6c0.6,0.7,1.1,1.3,1.8,1.9c0.4,0.3,0.9,0.6,1.3,0.6c1.7,0,4.1-2.1,4.2-3.9
		c0.2-3.2-1.6-5.6-3.3-8c0-0.1-0.1-0.1-0.2-0.1c-2.2-1-4.5-1.5-6.7-0.1c-3.3,2.1-6.4,4.5-9.7,6.6c-2.1,1.4-4.4,2.4-6.7,3.5
		c-1.7,0.8-3.5,0.7-5.2,0.2C353.1,192.9,352.1,192.6,350.6,192.3z M317.3,299.4c-0.1-0.1-0.2-0.1-0.3-0.2
		c-7.4,9.7-15.7,18.6-25.4,26.4c2.4,1.4,4.4,2.6,6.6,3.7c3.1,1.6,6.4,2.7,10.1,2.5c1.8-0.1,3.1-0.9,3.8-2.4c0.7-1.3,1.2-2.7,1.6-4.2
		c1.1-4.1,1.4-8.3,1.4-12.6c0.1-4.1,0.4-8.3,2-12.2C317.2,300.1,317.3,299.7,317.3,299.4z M185.9,307.6c0,0.7-0.1,1.3-0.1,1.8
		c0,5.2-0.1,10.5-0.1,15.7c0,2.4,0.1,4.8,0.3,7.2c0.2,3.5,3.9,5.2,6.4,4.8c1.2-0.2,2.3-0.7,3.4-1.1c3.4-1.5,6.7-3,10.1-4.5
		c0.5-0.2,1-0.7,1.6-1.2c-4.8-2.7-8.3-6.5-11.7-10.3C192.4,316,189.3,311.9,185.9,307.6z M322.5,227.6c1.6,1.2,2.9,2.3,4.3,3.2
		c1.3,0.7,2.7,1.2,4.1,1.7c0.8,0.3,1.3-0.2,1.1-1.1c-0.2-1-0.5-2-0.8-3c-0.3-1.4-0.4-2.6,0.8-3.7c0.8-0.8,1.3-2,1.9-3
		c0.1-0.2,0.1-0.6,0-0.8c-2.1-4-5.4-6.6-9.8-7.7c-1.9-0.5-3.7-0.5-5.5,0.5c-1.9,1.2-2.9,3-3.7,4.9c-0.1,0.1,0,0.4,0.1,0.5
		c1.8,3.4,1.5,7.1,1.4,10.8c-0.1,3.2-0.3,6.4,0.6,9.5c0.2,0.7,0.6,1.4,0.9,2.1C318.9,236.7,319.2,231.8,322.5,227.6z M323,232.5
		c0.3,0.9,0.7,1.4,0.7,1.8c-0.5,3.2,0.9,5.7,3,7.8c1.6,1.6,3.4,3,5.1,4.6c1.8,1.7,3.8,3.3,4.7,5.7c0.2,0.4,0.6,0.8,1.1,1
		c2.7,0.9,5.6,1.1,8.5,0.9c-0.1-0.3-0.1-0.5-0.2-0.6c-2.5-3.1-3.1-6.8-3.3-10.6c-0.1-2.2-0.4-4.4-0.8-6.5c-0.7-3.2-3.1-4.9-6-6.4
		c-0.1,1.5-0.2,2.8-0.3,4.1c-0.1,0.9-0.6,1.6-1.6,1.5c-3-0.1-5.9-0.3-8.4-2.3C324.9,233.2,324.1,233,323,232.5z M180.6,194.3
		c0.2,0,0.3,0.1,0.5,0.1c0.4-0.6,0.8-1.1,1.1-1.7c1.2-1.9,2.3-3.8,3.5-5.7c1.4-2,3.4-3.3,5.6-3.9c5.6-1.6,11.3-1,16.8,0.7
		c3.1,1,6.3,1.4,9.5,0.9c6.4-0.9,11.4-4.5,15.9-8.8c0.4-0.3,0.6-0.8,0.9-1.4c-0.4,0-0.5,0-0.6,0c-3.9,1.6-7.9,2.6-12.2,1.9
		c-0.3,0-0.6,0.1-0.9,0.1c-1.5,0.2-3,0.5-4.5,0.6c-4.9,0.3-9.8,0.5-14.7,0.9c-5.5,0.5-10.8,1.3-15.3,5.1c-2.6,2.2-4.1,4.8-5.1,7.9
		C180.8,192.1,180.8,193.2,180.6,194.3z M380,178.6c-1.3-2.6-2.3-5-3.7-7c-2.5-3.8-3.8-4.7-8.3-3.4c-0.5,0.1-1,0.2-1.4,0.4
		c-2.9,1.1-5.2,2.9-6.1,6c-1.3,4.7-0.9,9.2,1.5,13.9c1.7-1.2,3.4-2.4,5-3.6C370.9,182,374.3,178.5,380,178.6z M212.3,142.2
		c-3.3-1.9-6.4-4.5-10.5-4.1c-1.5,0.1-3.1,0.5-4.6,0.7c-1.9,0.3-3.9,0.9-5.8,0.7c-3.5-0.4-6.4,0.7-9.1,2.6c-1.1,0.8-2.1,1.8-3.4,2.9
		c0.8,0.2,1.2,0.2,1.6,0.4c3.9,1.4,7.8,2.8,11.6,4.4c2.3,0.9,4.5,0.9,6.8,0.6c0.4-0.1,0.9-0.4,1.2-0.7
		C203.5,146.2,207.3,143.3,212.3,142.2z M123.1,187.3c-0.1,0.1-0.2,0.1-0.3,0.2c2,3.5,2.2,6.9-0.3,10.2c-2.4,3.2-5.6,4.7-9.6,4.5
		c-0.4,1.7,0.3,3,1.4,4c0.8,0.7,1.8,1.3,2.6,1.9c2.9,2.2,7.9,2.2,10.9,0.3c3.8-2.5,5.3-6.3,5.5-10.6c0.1-2.5-0.5-4.9-2.8-6.3
		C128.1,190,125.6,188.7,123.1,187.3z M314.7,117.8c0.3,0.6,0.4,1,0.6,1.3c2,3.1,5.2,4.4,8.6,4.8c2.1,0.3,4.3,0.1,6.4,0.1
		c5.7-0.1,11.5-0.2,17.2-0.2c0.7,0,1.4-0.1,2.1-0.2c0.1-0.2,0.2-0.4,0.4-0.6c-0.5-0.3-1.1-0.7-1.6-1c-2.1-1.4-4.1-3-6.3-4.3
		c-1.7-1-3.6-1.8-5.5-2.2c-4.9-1.1-9.7-0.2-14.5,0.7C319.7,116.5,317.3,117.2,314.7,117.8z M222.5,187.3c-3.7,1-7.4,0.7-11.1,0.6
		c-0.2,0-0.4,0-0.5,0c-3.7,1.7-7.6,3-9.6,7c-0.8,1.6-1.4,3.2-2,4.8c-1,2.9-1.6,6-1.4,9.1c0.1,1.3,0.6,1.8,1.7,1.4
		c1.3-0.5,2.5-1.1,3.3-2.5c1.4-2.6,2.8-5.2,4.5-7.6c1.2-1.6,2.7-3.1,4.3-4.3c1.9-1.4,4.1-2.3,6.2-3.5
		C219.8,191.2,221.2,189.3,222.5,187.3z M123.7,134.3c-0.8-0.5-1.3-1-2-1.3c-1.2-0.6-1.2-1.3-0.4-2.3c2.7-3.5,5.3-7.1,8-10.6
		c0.7-0.9,0.7-1.5-0.2-2.1c-1.1-0.8-2.1-1.6-3.1-2.5c-0.7-0.5-1.2-0.3-1.7,0.3c-4.5,5.5-8.9,11.1-12.4,17.3c-0.5,0.9-1,1.9-1.6,2.9
		c3.4,2,6.6,3.9,10.1,5.9C119.7,138.4,121.5,136.3,123.7,134.3z M129.2,133.6c0.1,0.1,0.2,0.2,0.4,0.4c0.1,0,0.2,0.1,0.2,0.1
		c0.3-0.1,0.5-0.2,0.7-0.3c4.8-2.4,9.6-5,14.9-6.4c7-1.9,14.1-2.5,21.3-1.7c3.3,0.4,6.5,1.5,9.7,2.3c0.5,0.1,1,0.1,1.7,0.2
		c-0.2-0.6-0.3-1-0.5-1.4c-1.3-2.6-2.6-5.1-5.6-6c-4.3-1.3-8.8-1.5-13.3-0.9c-5.8,0.7-10.9,3.1-16.1,5.5c-4.2,1.9-8.2,4.2-11.7,7.2
		C130.3,132.8,129.7,133.2,129.2,133.6z M159.5,262.2c0.6,1.6,0.9,2.9,1.5,4.1c0.2,0.5,1,0.7,1.6,0.9c0.2,0,0.6-0.7,0.8-1.1
		c0.9-2.1,1.4-4.5,2.8-6.2c2.6-3.1,5.7-5.8,9.5-7.4c1.7-0.7,3.4-1.4,5-2.3c1.6-1,3.2-2,4.6-3.4c1.9-1.9,1.3-6.7-0.8-8.4
		c-0.6-0.5-1.1-0.6-1.7,0.3c-0.8,1.2-1.7,2.4-2.7,3.6c-3.6,4.4-8.6,7.2-12.9,10.7c-2,1.6-3.8,3.4-5.5,5.3
		C160.7,259.5,160.2,260.9,159.5,262.2z M235.8,117c-0.8,0-1.6,0-2.3-0.1c-0.8-0.1-1.7-0.1-2.2-0.5c-1.8-1.6-3.8-3-4.7-5.6
		c-1.3-3.7-3.5-6.4-7.6-7.2c-2-0.4-4.1-0.1-5.9-1.5c-0.1,0-0.8,0.5-0.8,0.8c-0.3,2.5,0.1,5,1.4,7.2c1.4,2.3,3.6,3.3,6,4.3
		c1.1,0.4,2.5,0.9,2.9,1.8c1.4,2.8,4,3.6,6.6,4.4C231.2,121,234.8,119.1,235.8,117z M204.8,186.5c-3.1-0.9-6-0.6-8.8-0.6
		c-3.6,0.1-6.5,1.6-8.4,4.6c-1.8,2.8-3.1,5.8-4.5,8.8c-0.3,0.6-0.4,1.4-0.5,2.1c-0.1,1.5,0.6,2.1,2.1,1.7c0.8-0.2,1.5-0.5,2.3-0.8
		c0.5-0.2,1.2-0.4,1.5-0.8c2.1-2.1,4-4.4,6.1-6.5c0.9-1,2-1.8,3.1-2.7C200,190.3,202.3,188.5,204.8,186.5z M268.1,335.2
		c-2.3-1.3-4.7-2.3-6.7-3.8c-2.1-1.5-3.8-3.5-5.7-5.2c-1.9-1.7-4.1-2.5-6.6-2.4c-1.8,0.1-2.2,0.7-1.7,2.5c1.7,6.8,7.3,11.9,14.3,13
		C265.2,339.9,267.1,338.7,268.1,335.2z M312.6,179.8c-0.4,1.5-0.9,2.9-1.2,4.2c-0.1,0.2,0.2,0.6,0.5,0.9c2.3,2.3,5.1,3.4,8.3,3.6
		c4.2,0.4,7.2-1.2,8.8-5.1c0.1-0.3,0.2-0.6,0.4-0.9c0.7-0.9,1.5-0.9,2.2,0c0.4,0.5,0.7,1,1.2,1.3c2.2,1.5,4,3.3,5.4,5.6
		c0.2,0.3,0.5,0.5,0.7,0.8c0.1-0.1,0.3-0.1,0.4-0.2c-0.2-1.3-0.3-2.6-0.8-3.8c-1.5-3.3-4.1-5.7-7.1-7.6c-0.3-0.2-0.7-0.3-1-0.2
		c-0.7,0.3-1.5,0.7-2.1,1.2c-1.6,1.4-3.5,1.8-5.6,1.8C319.2,181.7,315.9,181.2,312.6,179.8z M225.6,222.3c-4.9-1.9-10-2-15,0.5
		c-2.7,1.3-2.7,1.3-2.2,4.3c0,0.2,0.1,0.4,0,0.5c-0.4,1,0.3,1.3,1,1.6c4.6,1.9,9.3,2.1,14,0.4c2.1-0.8,2.8-2.1,2.4-4.2
		C225.7,224.4,225.7,223.4,225.6,222.3z M117.6,181.3c-1.1,0.3-2.4,0.4-3.6,1c-1.4,0.6-2.7,1.4-3.8,2.4c-0.8,0.7-1.4,1.7-1.6,2.7
		c-0.3,1.6-0.1,3.3,0,4.9c0.1,2.8,2.3,5.4,5,5.9c2.6,0.4,5.6-1.5,6.9-4.3c0.6-1.4,0.3-2.9-0.7-3.4c-1-0.4-2.5,0.3-3.3,1.4
		c-0.4,0.5-1.2,1-1.7,0.9c-0.5-0.1-1.2-0.8-1.3-1.4c-0.6-2.2,1.4-4.7,4.1-5.1c1.1-0.2,2.3,0,3.5,0C120,184.5,118.9,183,117.6,181.3z
		 M156.6,259.6c0.3-0.4,0.5-0.5,0.5-0.7c1.8-3.3,4.5-5.8,7.4-8.1c4.4-3.5,9.3-6.4,13.1-10.6c2.1-2.3,3-4.8,2.8-7.8
		c-0.1-0.7-0.4-1.5-0.7-2.2c-0.8,1.2-1.3,2.4-1.8,3.6c-1.9,4.4-4.4,8.2-9.9,8.4c-0.3,0-0.7,0.4-0.8,0.7c-0.5,1.2-0.8,2.4-1.4,3.6
		c-1.1,2.1-2.8,3.3-5.3,3.2c-0.9,0-1.7-0.1-2.6,0c-0.4,0-1,0.3-1.2,0.6c-1.2,2.5-1.7,5.1-0.9,7.8C156,258.6,156.3,259,156.6,259.6z
		 M185.4,206.9c-1.6-0.2-2.9-0.5-4.3-0.6c-1.1,0-2.3-0.1-3.2,0.4c-2.4,1.1-4.2,3-4.9,5.6c-0.3,1-0.4,2.1-0.1,3.1
		c0.7,2.2,6.2,3.8,8,2.3c1.5-1.2,2.9-2.5,2.9-4.8c0-1.1,0.5-2.3,0.8-3.4C184.9,208.6,185.1,207.8,185.4,206.9z M195.4,96.1
		c0,0.2-0.1,0.3-0.1,0.5c1.2,0.4,2.3,1.1,3.5,1.3c3.8,0.5,7.6-0.1,11-2c4.6-2.7,8.9-5.6,13.4-8.5c0,0,0-0.2,0-0.4
		C213.5,88.9,204.2,91.8,195.4,96.1z M251.7,339.1c-0.1-0.2-0.2-0.4-0.3-0.5c-2.1-2-4.1-4-5.2-6.7c-0.1-0.3-0.4-0.5-0.7-0.6
		c-2.5-0.3-5.1-0.5-7.5,0.6c-1,0.4-1.3,1.1-0.9,2c1.1,3.3,3,5.7,6.7,6.2C246.6,340.6,249.2,340.5,251.7,339.1z M335.9,264.1
		c0.1,0,0.2,0,0.4-0.1c0.1-0.6,0.2-1.1,0.2-1.7c0.2-3.9-1.5-7.3-3.9-10.1c-3.1-3.6-6.8-6.7-10.3-10c-0.1,0.9-0.1,1.7,0.2,2.5
		c0.8,2.1,1.3,4.4,2.6,6.1C328.8,255.2,333.3,258.8,335.9,264.1z M196.1,198.7c-0.1-0.1-0.2-0.2-0.4-0.2c-0.8,0.7-1.6,1.3-2.3,2
		c-2.7,2.9-4.3,6.3-6,9.9c-1.1,2.4,0.5,4.3,0.7,6.6c2.9-1.1,4.8-3.1,6.4-5.3c0.3-0.4,0.3-1,0.2-1.4c-0.5-3.2,0-6.3,0.9-9.4
		C195.9,200.1,196,199.4,196.1,198.7z M189.9,269.8c-0.6,0.3-1.1,0.5-1.5,0.7c-3.8,2.5-6.9,5.8-9.5,9.5c-2.1,3-3.2,6.4-3.1,10.1
		c0,0.5,0.4,0.9,0.6,1.4c0.3-0.4,0.7-0.7,0.8-1.1c0.9-4.1,3.4-7.2,6.4-9.9c1.5-1.4,3.1-2.7,4.5-4.2
		C189.9,274.6,190.2,272.4,189.9,269.8z M308.1,258.2c-3.9,6.1-3.3,13.1,0.4,16.2c1.4-3,2.7-5.9,4-8.8c0.1-0.2,0-0.6-0.1-0.8
		C310.9,262.6,309.5,260.5,308.1,258.2z M362.4,124.6c1.7,2.1,4.2,2.1,6.2,3.1c2,1,4.2,1.7,6.3,2.6c-0.4-1.1-1-2-1.6-2.8
		c-1.7-2.1-3.4-4.2-5.1-6.4c-0.5-0.6-1-0.7-1.6-0.1C365.3,122.1,363.9,123.3,362.4,124.6z M105.6,197.3c-1.7-4.1-1.6-8.4-0.4-12.9
		c-1.9,2.2-3.6,4-5.2,5.9c-0.1,0.1-0.2,0.4-0.1,0.6c0.2,1.3,0.3,2.7,0.8,4C101.5,197.3,102.7,197.8,105.6,197.3z M99.3,157.6
		c0.1,0.1,0.2,0.2,0.4,0.2c2.5-2.1,5-4.2,7.5-6.3c-1-0.5-1.9-0.9-2.8-1.3c-1.1-0.5-1.8-0.3-2.2,0.9c-0.4,1.1-1,2.1-1.5,3.2
		C100.2,155.4,99.7,156.5,99.3,157.6z M98.4,197.7c-0.1,0-0.2,0.1-0.3,0.1c-0.1,1.5-0.3,2.9-0.4,4.4c0,0.2,0.4,0.6,0.6,0.7
		c1.8,0.3,3.6,0.5,5.5,0.8c0.1-0.8,0.3-1.4,0.4-2.2C101.5,201.3,99.6,200.1,98.4,197.7z M184.4,235.1c0.1,0,0.2,0,0.4,0
		c0.1-0.1,0.2-0.3,0.2-0.4c-0.2-3.3-0.4-6.7-0.6-10c0-0.2-0.3-0.6-0.5-0.6c-0.6,0.2-1.4,0.3-1.9,0.7c-0.6,0.5-0.7,1.1-0.2,1.9
		c1.3,2.2,2.3,4.5,2.3,7.1C184,234.2,184.2,234.7,184.4,235.1z M369.2,164.4c-2.9-1.5-5.6-2.4-9.1-2.1c1,0.7,1.8,1.1,2.4,1.7
		c0.6,0.6,1.1,1.2,1.7,1.9C365.7,165.5,367.3,165,369.2,164.4z M178.2,106.1c-0.1-0.1-0.2-0.2-0.2-0.3c-4.8,2.9-9.3,6.1-13.9,10
		c1.2,0,1.9,0.1,2.7,0c0.3,0,0.8-0.3,0.9-0.6c1.5-2.5,3.7-4.4,6.1-6.2C175.2,108,176.7,107.1,178.2,106.1z M116,176.8
		c-0.1-1.1-0.1-2.4-0.2-4c-2.2,2.1-4.2,4.1-6.2,6c0.1,0.1,0.2,0.2,0.3,0.3C111.9,178.3,113.9,177.6,116,176.8z M160.1,237.6
		c-0.2-0.9-0.4-1.7-0.6-2.5c-0.2-0.8-0.3-1.7-0.7-2.5c-0.2-0.5-0.8-0.9-1.2-1.4c-0.5,0.6-1.4,1.1-1.5,1.8
		C155.8,234.3,158.4,237.3,160.1,237.6z M394.3,143.3c0.1-0.1,0.2-0.1,0.2-0.2c-0.8-1.4-1.6-2.8-2.5-4.2c-1.1-1.9-1.4-1.9-3.2-0.4
		C390.7,140.1,392.5,141.7,394.3,143.3z M405.8,203c1.9-0.3,3.7-0.5,5.5-0.8c0.3,0,0.5-0.5,0.8-0.7c-0.3-0.1-0.7-0.3-0.9-0.2
		c-1.7,0.6-3.4,0.4-5-0.3c-0.2-0.1-0.4,0-0.7,0.1C405.6,201.7,405.7,202.2,405.8,203z M232.4,226.5c-1.5-1.2-2.7-2.1-4.1-3.1
		c0.2,1.5,0.3,2.8,0.5,4.2C229.9,227.3,230.9,227,232.4,226.5z M205.9,101.1c0,0.2,0,0.4-0.1,0.5c1,0.3,1.9,0.5,2.9,0.8
		c0.1-0.7,0.3-1.5,0.5-2.4C207.8,100.4,206.9,100.8,205.9,101.1z M203.6,225.2c0,0.1-0.1,0.2-0.1,0.3c0.5,0.4,1,0.7,1.5,1.1
		c0.2-0.7,0.2-1.3-0.1-1.5C204.7,224.9,204.1,225.2,203.6,225.2z"/>
	<path id="XMLID_461_" d="M287.2,218.1c-0.7-0.5-1.2-0.9-1.7-1.3c-6.2-3.6-12.3-3.2-18.4,0.2c-1,0.6-1.9,1.4-3,1.9
		c-0.3,0.2-1,0.2-1.2,0c-0.2-0.2-0.3-0.8-0.2-1.2c0.1-0.4,0.5-0.9,0.8-1.2c3.3-3,7.3-4.2,11.6-4.6c4.3-0.4,8.3-0.1,12,2.5
		c1.5,1.1,3.2,2,4.9,2.9c3.7,1.8,7.2,0.7,9.3-2.9c0.3-0.5,0.7-1,1.1-1.4c0.3-0.2,0.9-0.4,1.2-0.3c0.3,0.2,0.5,0.7,0.5,1.2
		c0,0.4-0.2,0.9-0.4,1.3c-2.1,3.6-5,5.9-9.3,5.8c-0.3,0-0.5,0-0.8,0c-0.1,0-0.1,0.1-0.2,0.2c2.1,2,2.2,2.2-0.3,4
		c-4.4,3.1-9,5.7-14.6,6c-1.4,0.1-2.8,0.1-4.1-0.2c-3.7-0.9-7.3-1.9-10.9-2.9c-1.5-0.4-1.9-1.8-1.4-3.3c1.9-6,7-7.3,12.2-8.1
		c3.7-0.6,7.4,0.2,11.1,1.3c0.4,0.1,0.8,0.2,1.2,0.3C286.7,218.3,286.8,218.2,287.2,218.1z M268.6,220.9c0.2,1,0.4,1.7,0.4,2.5
		c-0.1,2.4,1.1,4.1,3.5,4.6c4.6,1,9.1,1.1,13.4-1.3c1.8-1,2-1.1,1.8-3.2c-0.1-1-0.4-1.6-1.3-2c-1.1-0.5-2.2-1.1-3.4-1.5
		C278.1,218.5,273.2,218.6,268.6,220.9z M263.6,224.5c0.1,0.2,0.2,0.5,0.4,0.7c0.8,0.3,1.6,0.6,2.6,1c-0.1-1.3-0.2-2.4-0.3-3.4
		c-0.2-0.1-0.3-0.2-0.5-0.3C265,223.2,264.3,223.9,263.6,224.5z"/>
	<path id="XMLID_460_" d="M268.1,280.3c-0.2-0.4-0.3-0.6-0.4-0.9c-0.3-1.1,0.3-1.9,1.4-1.5c2.2,0.7,3.4,2.5,4.4,4.4
		c0.1,0.2-0.1,0.9-0.3,1c-0.4,0.2-1,0.3-1.4,0.1c-0.8-0.5-1.6-0.3-2.4-0.2c-2.8,0.6-5.7,1.4-8.6,1.6c-1.7,0.1-3.5-0.6-5.1-1.2
		c-2.1-0.8-3.9-1.2-5.9,0.4c-1.7,1.4-3.5,1.6-5.4,0.3c-2.4-1.5-5-1.6-7.6-0.7c-1.7,0.5-3.4,1.1-5.1,1.6c-2.2,0.6-4.4,0.6-6.5-0.6
		c-0.9-0.5-1.6-0.4-2.2,0.4c-0.6,0.8-1.3,0.8-2,0.2c-0.8-0.6-0.8-1.4-0.2-2.1c0.7-1,1.5-2,2.4-2.8c1.4-1.3,2.3-0.9,2.9,0.8
		c0.1,0.3,0.7,0.7,1.1,0.7c2.1-0.1,4.3-0.2,6.4-0.4c0.9-0.1,1.9-0.4,2.8-0.7c3.1-0.9,6-0.7,8.9,0.6c1.1,0.5,2,0.5,3-0.1
		c2.4-1.6,5-1.5,7.6-0.6c3.7,1.2,7.4,1.8,11.1,0.2C267.4,280.6,267.7,280.5,268.1,280.3z"/>
	<path id="XMLID_459_" d="M239.7,216.3c2-1.3,2.5-1.2,2.9,1.1c0.2,1.3,0.2,2.7,0.1,4.1c-0.1,4.1-0.4,8.3-0.5,12.4
		c0,2.5,0.4,5.1,0.3,7.6c-0.1,2.2-0.7,4.3-1.1,6.4c-0.6,2.9-1.3,5.8-0.4,8.8c0.9,3.1,2.5,4.4,5.7,4.4c1,0,2,0,3-0.1
		c0.7,0,1.2,0.2,1.3,1c0.1,0.8-0.2,1.2-0.9,1.5c-3.6,1.7-9.6,0.3-11.3-4.6c-1.2-3.6-1.2-7.1-0.2-10.6c1.3-4.6,1.7-9.2,0.9-13.9
		c-0.3-2,0.2-4.2,0.2-6.2C239.8,224.2,239.7,220.2,239.7,216.3z"/>
	<path id="XMLID_458_" d="M258.8,214.2c0.3-0.3,0.5-0.6,0.8-0.7c2.6-0.9,4.3-3.1,6.3-4.9c1.6-1.5,3.3-3.1,5.6-3.7
		c1.5-0.4,2.9-1.1,4.4-1.4c2.3-0.4,4.7-0.4,7,0.5c3.7,1.5,7.4,2.8,11.1,4c2.8,0.9,5.7,1,8.6,0.3c0.6-0.1,1.4,0.1,2.1,0.2
		c-0.5,0.5-1,1.1-1.6,1.4c-3.3,1.4-6.8,0.8-10.1,0c-2.7-0.6-5.3-1.8-7.9-2.8c-2.9-1.1-6-2.1-9-1.2c-3.3,0.9-6.6,2-9,4.8
		c-1.2,1.4-2.7,2.6-4.1,3.7C261.8,215.3,259.9,215.1,258.8,214.2z"/>
	<path id="XMLID_457_" d="M251.7,291.7c-2.6-0.3-5.1-0.6-7.6-0.8c-1.4-0.1-2.8,0.1-4.2,0.4c-3,0.6-5.9,0.7-8.7-0.5
		c-0.7-0.3-1.3-0.7-1.8-1.2c-0.4-0.4-0.3-1.2-0.5-1.8c0.6,0,1.2-0.2,1.7-0.1c0.9,0.2,1.7,0.8,2.5,0.9c2.3,0.1,4.6-0.1,6.9,0
		c2.4,0,4.9-0.3,7.2,0.2c5.2,1,10.1,0.1,15-1.7c0.9-0.3,1.8-0.3,2,0.5c0.1,0.4-0.6,1.5-1.1,1.7C259.5,290.5,255.7,291.6,251.7,291.7
		z"/>
	<path id="XMLID_456_" d="M258.6,277.4c-1.2-0.4-2.6-0.9-4-1.4c-2-0.8-3.9-1.3-6,0c-0.7,0.4-2.1,0-3.1-0.4c-1.6-0.6-2.9-0.3-4.3,0.3
		c-1.4,0.6-2.8,1.3-4.3,1.6c-1.1,0.2-2.2-0.1-3.3-0.2c-0.3-0.1-0.6-0.6-0.8-0.9c0.3-0.3,0.8-0.9,1-0.9c3,0.6,5.3-1.2,7.9-2.1
		c1.8-0.6,3.5-0.9,5.3-0.1c0.5,0.2,1.3,0,1.9-0.3c2.2-1.3,4.4-1,6.5,0.2c1.6,1,3.2,2.1,5.2,2.1c0.3,0,0.7,0.6,0.7,0.9
		c0,0.3-0.4,0.7-0.7,0.9C260,277.2,259.5,277.2,258.6,277.4z"/>
	<path id="XMLID_455_" d="M226.7,262c0-0.1,0-0.4,0.1-0.5c0.3-0.3,0.7-0.7,1.2-0.9c0.1,0,0.7,0.6,0.7,1c0.2,2,0.9,2.5,2.9,2.1
		c1.9-0.4,3.8-0.9,5.7-1.1c2.2-0.2,4,0.7,5.6,2.1c0.3,0.3,0.3,0.8,0.4,1.3c-0.4,0.1-0.9,0.3-1.3,0.2c-2.5-1.2-4.9-0.9-7.5-0.2
		c-1.2,0.3-2.4,0.5-3.6,0.6C228.7,266.5,226.7,264.4,226.7,262z"/>
	<path id="XMLID_454_" d="M265.4,259.5c0,2.5-1.3,4-4.1,4.7c-1.7,0.4-3.5,0.4-5.3,0.6c-1.1,0.1-2.3,0.2-3.4,0.2
		c-0.5,0-0.9-0.4-1.4-0.6c0.3-0.4,0.6-1,1-1.1c1.4-0.4,2.7-0.5,4.1-0.8c1.4-0.2,2.8-0.2,4.2-0.6c1.4-0.4,2.4-1.3,2.5-2.9
		c0-0.3,0.1-0.6,0.2-0.8c0.4-0.3,0.9-0.7,1.4-0.8c0.2,0,0.5,0.7,0.7,1.1C265.5,258.8,265.4,259.2,265.4,259.5z"/>
	<path id="XMLID_453_" d="M263.1,235.4c-0.6-0.5-1.3-0.8-1.7-1.4c-2.2-2.9-3.6-6.2-4-9.8c0-0.4,0.2-0.8,0.3-1.2
		c0.4,0.2,0.9,0.4,1.2,0.7c0.3,0.5,0.4,1.1,0.6,1.6c1.1,2.4,2.2,4.9,3.2,7.3c0.3,0.8,0.5,1.6,0.8,2.4
		C263.4,235.1,263.2,235.2,263.1,235.4z"/>
	<path id="XMLID_452_" d="M251.7,269.1c0.2,1.4-0.5,2.2-1.5,2.3c-1.3,0-2.7-0.4-4.1-0.7c-0.1,0-0.3-0.6-0.2-0.8
		c0.2-0.2,0.6-0.4,0.9-0.4c0.8,0,1.6,0.2,2.4,0.1C249.9,269.6,250.7,269.3,251.7,269.1z"/>
</g>
</svg>
